%TF.GenerationSoftware,KiCad,Pcbnew,(5.1.9)-1*%
%TF.CreationDate,2021-06-01T10:14:56+02:00*%
%TF.ProjectId,14_Demi_Pont_H_99,31345f44-656d-4695-9f50-6f6e745f485f,rev?*%
%TF.SameCoordinates,Original*%
%TF.FileFunction,Legend,Bot*%
%TF.FilePolarity,Positive*%
%FSLAX46Y46*%
G04 Gerber Fmt 4.6, Leading zero omitted, Abs format (unit mm)*
G04 Created by KiCad (PCBNEW (5.1.9)-1) date 2021-06-01 10:14:56*
%MOMM*%
%LPD*%
G01*
G04 APERTURE LIST*
%ADD10C,0.150000*%
%TA.AperFunction,Profile*%
%ADD11C,0.050000*%
%TD*%
G04 APERTURE END LIST*
D10*
X107278095Y-63368571D02*
X108040000Y-63368571D01*
X107659047Y-62987619D02*
X107659047Y-63749523D01*
X109040000Y-62987619D02*
X108468571Y-62987619D01*
X108754285Y-62987619D02*
X108754285Y-63987619D01*
X108659047Y-63844761D01*
X108563809Y-63749523D01*
X108468571Y-63701904D01*
X109944761Y-63987619D02*
X109468571Y-63987619D01*
X109420952Y-63511428D01*
X109468571Y-63559047D01*
X109563809Y-63606666D01*
X109801904Y-63606666D01*
X109897142Y-63559047D01*
X109944761Y-63511428D01*
X109992380Y-63416190D01*
X109992380Y-63178095D01*
X109944761Y-63082857D01*
X109897142Y-63035238D01*
X109801904Y-62987619D01*
X109563809Y-62987619D01*
X109468571Y-63035238D01*
X109420952Y-63082857D01*
X110278095Y-63987619D02*
X110611428Y-62987619D01*
X110944761Y-63987619D01*
X106035238Y-65782857D02*
X105987619Y-65735238D01*
X105844761Y-65687619D01*
X105749523Y-65687619D01*
X105606666Y-65735238D01*
X105511428Y-65830476D01*
X105463809Y-65925714D01*
X105416190Y-66116190D01*
X105416190Y-66259047D01*
X105463809Y-66449523D01*
X105511428Y-66544761D01*
X105606666Y-66640000D01*
X105749523Y-66687619D01*
X105844761Y-66687619D01*
X105987619Y-66640000D01*
X106035238Y-66592380D01*
X106463809Y-65687619D02*
X106463809Y-66354285D01*
X106463809Y-66259047D02*
X106511428Y-66306666D01*
X106606666Y-66354285D01*
X106749523Y-66354285D01*
X106844761Y-66306666D01*
X106892380Y-66211428D01*
X106892380Y-65687619D01*
X106892380Y-66211428D02*
X106940000Y-66306666D01*
X107035238Y-66354285D01*
X107178095Y-66354285D01*
X107273333Y-66306666D01*
X107320952Y-66211428D01*
X107320952Y-65687619D01*
X108225714Y-65687619D02*
X108225714Y-66687619D01*
X108225714Y-65735238D02*
X108130476Y-65687619D01*
X107940000Y-65687619D01*
X107844761Y-65735238D01*
X107797142Y-65782857D01*
X107749523Y-65878095D01*
X107749523Y-66163809D01*
X107797142Y-66259047D01*
X107844761Y-66306666D01*
X107940000Y-66354285D01*
X108130476Y-66354285D01*
X108225714Y-66306666D01*
X108463809Y-65592380D02*
X109225714Y-65592380D01*
X109463809Y-65687619D02*
X109463809Y-66687619D01*
X109463809Y-66211428D02*
X110035238Y-66211428D01*
X110035238Y-65687619D02*
X110035238Y-66687619D01*
X110940000Y-65687619D02*
X110940000Y-66211428D01*
X110892380Y-66306666D01*
X110797142Y-66354285D01*
X110606666Y-66354285D01*
X110511428Y-66306666D01*
X110940000Y-65735238D02*
X110844761Y-65687619D01*
X110606666Y-65687619D01*
X110511428Y-65735238D01*
X110463809Y-65830476D01*
X110463809Y-65925714D01*
X110511428Y-66020952D01*
X110606666Y-66068571D01*
X110844761Y-66068571D01*
X110940000Y-66116190D01*
X111844761Y-66354285D02*
X111844761Y-65687619D01*
X111416190Y-66354285D02*
X111416190Y-65830476D01*
X111463809Y-65735238D01*
X111559047Y-65687619D01*
X111701904Y-65687619D01*
X111797142Y-65735238D01*
X111844761Y-65782857D01*
X112178095Y-66354285D02*
X112559047Y-66354285D01*
X112320952Y-66687619D02*
X112320952Y-65830476D01*
X112368571Y-65735238D01*
X112463809Y-65687619D01*
X112559047Y-65687619D01*
X106092380Y-68382857D02*
X106044761Y-68335238D01*
X105901904Y-68287619D01*
X105806666Y-68287619D01*
X105663809Y-68335238D01*
X105568571Y-68430476D01*
X105520952Y-68525714D01*
X105473333Y-68716190D01*
X105473333Y-68859047D01*
X105520952Y-69049523D01*
X105568571Y-69144761D01*
X105663809Y-69240000D01*
X105806666Y-69287619D01*
X105901904Y-69287619D01*
X106044761Y-69240000D01*
X106092380Y-69192380D01*
X106520952Y-68287619D02*
X106520952Y-68954285D01*
X106520952Y-68859047D02*
X106568571Y-68906666D01*
X106663809Y-68954285D01*
X106806666Y-68954285D01*
X106901904Y-68906666D01*
X106949523Y-68811428D01*
X106949523Y-68287619D01*
X106949523Y-68811428D02*
X106997142Y-68906666D01*
X107092380Y-68954285D01*
X107235238Y-68954285D01*
X107330476Y-68906666D01*
X107378095Y-68811428D01*
X107378095Y-68287619D01*
X108282857Y-68287619D02*
X108282857Y-69287619D01*
X108282857Y-68335238D02*
X108187619Y-68287619D01*
X107997142Y-68287619D01*
X107901904Y-68335238D01*
X107854285Y-68382857D01*
X107806666Y-68478095D01*
X107806666Y-68763809D01*
X107854285Y-68859047D01*
X107901904Y-68906666D01*
X107997142Y-68954285D01*
X108187619Y-68954285D01*
X108282857Y-68906666D01*
X108520952Y-68192380D02*
X109282857Y-68192380D01*
X109854285Y-68811428D02*
X109997142Y-68763809D01*
X110044761Y-68716190D01*
X110092380Y-68620952D01*
X110092380Y-68478095D01*
X110044761Y-68382857D01*
X109997142Y-68335238D01*
X109901904Y-68287619D01*
X109520952Y-68287619D01*
X109520952Y-69287619D01*
X109854285Y-69287619D01*
X109949523Y-69240000D01*
X109997142Y-69192380D01*
X110044761Y-69097142D01*
X110044761Y-69001904D01*
X109997142Y-68906666D01*
X109949523Y-68859047D01*
X109854285Y-68811428D01*
X109520952Y-68811428D01*
X110949523Y-68287619D02*
X110949523Y-68811428D01*
X110901904Y-68906666D01*
X110806666Y-68954285D01*
X110616190Y-68954285D01*
X110520952Y-68906666D01*
X110949523Y-68335238D02*
X110854285Y-68287619D01*
X110616190Y-68287619D01*
X110520952Y-68335238D01*
X110473333Y-68430476D01*
X110473333Y-68525714D01*
X110520952Y-68620952D01*
X110616190Y-68668571D01*
X110854285Y-68668571D01*
X110949523Y-68716190D01*
X111378095Y-68335238D02*
X111473333Y-68287619D01*
X111663809Y-68287619D01*
X111759047Y-68335238D01*
X111806666Y-68430476D01*
X111806666Y-68478095D01*
X111759047Y-68573333D01*
X111663809Y-68620952D01*
X111520952Y-68620952D01*
X111425714Y-68668571D01*
X111378095Y-68763809D01*
X111378095Y-68811428D01*
X111425714Y-68906666D01*
X111520952Y-68954285D01*
X111663809Y-68954285D01*
X111759047Y-68906666D01*
X105840000Y-74387619D02*
X106173333Y-73387619D01*
X106506666Y-74387619D01*
X106840000Y-74054285D02*
X106840000Y-73054285D01*
X106840000Y-74006666D02*
X106935238Y-74054285D01*
X107125714Y-74054285D01*
X107220952Y-74006666D01*
X107268571Y-73959047D01*
X107316190Y-73863809D01*
X107316190Y-73578095D01*
X107268571Y-73482857D01*
X107220952Y-73435238D01*
X107125714Y-73387619D01*
X106935238Y-73387619D01*
X106840000Y-73435238D01*
X107887619Y-73387619D02*
X107792380Y-73435238D01*
X107744761Y-73482857D01*
X107697142Y-73578095D01*
X107697142Y-73863809D01*
X107744761Y-73959047D01*
X107792380Y-74006666D01*
X107887619Y-74054285D01*
X108030476Y-74054285D01*
X108125714Y-74006666D01*
X108173333Y-73959047D01*
X108220952Y-73863809D01*
X108220952Y-73578095D01*
X108173333Y-73482857D01*
X108125714Y-73435238D01*
X108030476Y-73387619D01*
X107887619Y-73387619D01*
X108554285Y-74054285D02*
X108744761Y-73387619D01*
X108935238Y-73863809D01*
X109125714Y-73387619D01*
X109316190Y-74054285D01*
X110078095Y-73435238D02*
X109982857Y-73387619D01*
X109792380Y-73387619D01*
X109697142Y-73435238D01*
X109649523Y-73530476D01*
X109649523Y-73911428D01*
X109697142Y-74006666D01*
X109792380Y-74054285D01*
X109982857Y-74054285D01*
X110078095Y-74006666D01*
X110125714Y-73911428D01*
X110125714Y-73816190D01*
X109649523Y-73720952D01*
X110554285Y-73387619D02*
X110554285Y-74054285D01*
X110554285Y-73863809D02*
X110601904Y-73959047D01*
X110649523Y-74006666D01*
X110744761Y-74054285D01*
X110840000Y-74054285D01*
X106478095Y-79040000D02*
X106382857Y-79087619D01*
X106240000Y-79087619D01*
X106097142Y-79040000D01*
X106001904Y-78944761D01*
X105954285Y-78849523D01*
X105906666Y-78659047D01*
X105906666Y-78516190D01*
X105954285Y-78325714D01*
X106001904Y-78230476D01*
X106097142Y-78135238D01*
X106240000Y-78087619D01*
X106335238Y-78087619D01*
X106478095Y-78135238D01*
X106525714Y-78182857D01*
X106525714Y-78516190D01*
X106335238Y-78516190D01*
X106954285Y-78087619D02*
X106954285Y-79087619D01*
X107525714Y-78087619D01*
X107525714Y-79087619D01*
X108001904Y-78087619D02*
X108001904Y-79087619D01*
X108240000Y-79087619D01*
X108382857Y-79040000D01*
X108478095Y-78944761D01*
X108525714Y-78849523D01*
X108573333Y-78659047D01*
X108573333Y-78516190D01*
X108525714Y-78325714D01*
X108478095Y-78230476D01*
X108382857Y-78135238D01*
X108240000Y-78087619D01*
X108001904Y-78087619D01*
X106040000Y-76687619D02*
X106230476Y-76687619D01*
X106325714Y-76640000D01*
X106420952Y-76544761D01*
X106468571Y-76354285D01*
X106468571Y-76020952D01*
X106420952Y-75830476D01*
X106325714Y-75735238D01*
X106230476Y-75687619D01*
X106040000Y-75687619D01*
X105944761Y-75735238D01*
X105849523Y-75830476D01*
X105801904Y-76020952D01*
X105801904Y-76354285D01*
X105849523Y-76544761D01*
X105944761Y-76640000D01*
X106040000Y-76687619D01*
X106897142Y-76687619D02*
X106897142Y-75878095D01*
X106944761Y-75782857D01*
X106992380Y-75735238D01*
X107087619Y-75687619D01*
X107278095Y-75687619D01*
X107373333Y-75735238D01*
X107420952Y-75782857D01*
X107468571Y-75878095D01*
X107468571Y-76687619D01*
X107801904Y-76687619D02*
X108373333Y-76687619D01*
X108087619Y-75687619D02*
X108087619Y-76687619D01*
X106278095Y-72040000D02*
X106182857Y-72087619D01*
X106040000Y-72087619D01*
X105897142Y-72040000D01*
X105801904Y-71944761D01*
X105754285Y-71849523D01*
X105706666Y-71659047D01*
X105706666Y-71516190D01*
X105754285Y-71325714D01*
X105801904Y-71230476D01*
X105897142Y-71135238D01*
X106040000Y-71087619D01*
X106135238Y-71087619D01*
X106278095Y-71135238D01*
X106325714Y-71182857D01*
X106325714Y-71516190D01*
X106135238Y-71516190D01*
X106754285Y-71087619D02*
X106754285Y-72087619D01*
X107325714Y-71087619D01*
X107325714Y-72087619D01*
X107801904Y-71087619D02*
X107801904Y-72087619D01*
X108040000Y-72087619D01*
X108182857Y-72040000D01*
X108278095Y-71944761D01*
X108325714Y-71849523D01*
X108373333Y-71659047D01*
X108373333Y-71516190D01*
X108325714Y-71325714D01*
X108278095Y-71230476D01*
X108182857Y-71135238D01*
X108040000Y-71087619D01*
X107801904Y-71087619D01*
D11*
X115570000Y-60960000D02*
X120650000Y-60960000D01*
X115570000Y-81280000D02*
X120650000Y-81280000D01*
X101600000Y-62230000D02*
X101600000Y-60960000D01*
X100330000Y-62230000D02*
X101600000Y-62230000D01*
X100330000Y-67310000D02*
X100330000Y-62230000D01*
X100330000Y-72390000D02*
X100330000Y-67310000D01*
X120650000Y-60960000D02*
X120650000Y-81280000D01*
X101600000Y-60960000D02*
X115570000Y-60960000D01*
X101600000Y-80010000D02*
X101600000Y-81280000D01*
X100330000Y-80010000D02*
X101600000Y-80010000D01*
D10*
X116275714Y-64563809D02*
X117085238Y-64563809D01*
X117180476Y-64516190D01*
X117228095Y-64468571D01*
X117275714Y-64373333D01*
X117275714Y-64230476D01*
X117228095Y-64135238D01*
X116894761Y-64563809D02*
X116942380Y-64468571D01*
X116942380Y-64278095D01*
X116894761Y-64182857D01*
X116847142Y-64135238D01*
X116751904Y-64087619D01*
X116466190Y-64087619D01*
X116370952Y-64135238D01*
X116323333Y-64182857D01*
X116275714Y-64278095D01*
X116275714Y-64468571D01*
X116323333Y-64563809D01*
X116942380Y-65040000D02*
X116275714Y-65040000D01*
X115942380Y-65040000D02*
X115990000Y-64992380D01*
X116037619Y-65040000D01*
X115990000Y-65087619D01*
X115942380Y-65040000D01*
X116037619Y-65040000D01*
X116275714Y-65373333D02*
X116275714Y-65754285D01*
X115942380Y-65516190D02*
X116799523Y-65516190D01*
X116894761Y-65563809D01*
X116942380Y-65659047D01*
X116942380Y-65754285D01*
X116942380Y-66087619D02*
X115942380Y-66087619D01*
X116942380Y-66516190D02*
X116418571Y-66516190D01*
X116323333Y-66468571D01*
X116275714Y-66373333D01*
X116275714Y-66230476D01*
X116323333Y-66135238D01*
X116370952Y-66087619D01*
X116275714Y-67420952D02*
X116942380Y-67420952D01*
X116275714Y-66992380D02*
X116799523Y-66992380D01*
X116894761Y-67040000D01*
X116942380Y-67135238D01*
X116942380Y-67278095D01*
X116894761Y-67373333D01*
X116847142Y-67420952D01*
X116942380Y-67897142D02*
X115942380Y-67897142D01*
X116323333Y-67897142D02*
X116275714Y-67992380D01*
X116275714Y-68182857D01*
X116323333Y-68278095D01*
X116370952Y-68325714D01*
X116466190Y-68373333D01*
X116751904Y-68373333D01*
X116847142Y-68325714D01*
X116894761Y-68278095D01*
X116942380Y-68182857D01*
X116942380Y-67992380D01*
X116894761Y-67897142D01*
X116847142Y-68801904D02*
X116894761Y-68849523D01*
X116942380Y-68801904D01*
X116894761Y-68754285D01*
X116847142Y-68801904D01*
X116942380Y-68801904D01*
X116894761Y-69706666D02*
X116942380Y-69611428D01*
X116942380Y-69420952D01*
X116894761Y-69325714D01*
X116847142Y-69278095D01*
X116751904Y-69230476D01*
X116466190Y-69230476D01*
X116370952Y-69278095D01*
X116323333Y-69325714D01*
X116275714Y-69420952D01*
X116275714Y-69611428D01*
X116323333Y-69706666D01*
X116942380Y-70278095D02*
X116894761Y-70182857D01*
X116847142Y-70135238D01*
X116751904Y-70087619D01*
X116466190Y-70087619D01*
X116370952Y-70135238D01*
X116323333Y-70182857D01*
X116275714Y-70278095D01*
X116275714Y-70420952D01*
X116323333Y-70516190D01*
X116370952Y-70563809D01*
X116466190Y-70611428D01*
X116751904Y-70611428D01*
X116847142Y-70563809D01*
X116894761Y-70516190D01*
X116942380Y-70420952D01*
X116942380Y-70278095D01*
X116942380Y-71040000D02*
X116275714Y-71040000D01*
X116370952Y-71040000D02*
X116323333Y-71087619D01*
X116275714Y-71182857D01*
X116275714Y-71325714D01*
X116323333Y-71420952D01*
X116418571Y-71468571D01*
X116942380Y-71468571D01*
X116418571Y-71468571D02*
X116323333Y-71516190D01*
X116275714Y-71611428D01*
X116275714Y-71754285D01*
X116323333Y-71849523D01*
X116418571Y-71897142D01*
X116942380Y-71897142D01*
X115894761Y-73087619D02*
X117180476Y-72230476D01*
X117592380Y-62920952D02*
X117592380Y-63492380D01*
X118592380Y-63206666D02*
X117592380Y-63206666D01*
X118592380Y-63825714D02*
X117592380Y-63825714D01*
X118592380Y-64254285D02*
X118068571Y-64254285D01*
X117973333Y-64206666D01*
X117925714Y-64111428D01*
X117925714Y-63968571D01*
X117973333Y-63873333D01*
X118020952Y-63825714D01*
X118592380Y-64730476D02*
X117925714Y-64730476D01*
X117592380Y-64730476D02*
X117640000Y-64682857D01*
X117687619Y-64730476D01*
X117640000Y-64778095D01*
X117592380Y-64730476D01*
X117687619Y-64730476D01*
X118544761Y-65587619D02*
X118592380Y-65492380D01*
X118592380Y-65301904D01*
X118544761Y-65206666D01*
X118449523Y-65159047D01*
X118068571Y-65159047D01*
X117973333Y-65206666D01*
X117925714Y-65301904D01*
X117925714Y-65492380D01*
X117973333Y-65587619D01*
X118068571Y-65635238D01*
X118163809Y-65635238D01*
X118259047Y-65159047D01*
X118592380Y-66063809D02*
X117925714Y-66063809D01*
X118116190Y-66063809D02*
X118020952Y-66111428D01*
X117973333Y-66159047D01*
X117925714Y-66254285D01*
X117925714Y-66349523D01*
X118592380Y-66682857D02*
X117925714Y-66682857D01*
X118116190Y-66682857D02*
X118020952Y-66730476D01*
X117973333Y-66778095D01*
X117925714Y-66873333D01*
X117925714Y-66968571D01*
X117925714Y-67206666D02*
X118592380Y-67444761D01*
X117925714Y-67682857D02*
X118592380Y-67444761D01*
X118830476Y-67349523D01*
X118878095Y-67301904D01*
X118925714Y-67206666D01*
X117592380Y-68254285D02*
X117592380Y-68444761D01*
X117640000Y-68540000D01*
X117735238Y-68635238D01*
X117925714Y-68682857D01*
X118259047Y-68682857D01*
X118449523Y-68635238D01*
X118544761Y-68540000D01*
X118592380Y-68444761D01*
X118592380Y-68254285D01*
X118544761Y-68159047D01*
X118449523Y-68063809D01*
X118259047Y-68016190D01*
X117925714Y-68016190D01*
X117735238Y-68063809D01*
X117640000Y-68159047D01*
X117592380Y-68254285D01*
X118592380Y-69111428D02*
X117925714Y-69111428D01*
X118116190Y-69111428D02*
X118020952Y-69159047D01*
X117973333Y-69206666D01*
X117925714Y-69301904D01*
X117925714Y-69397142D01*
X118592380Y-69873333D02*
X118544761Y-69778095D01*
X118449523Y-69730476D01*
X117592380Y-69730476D01*
X118592380Y-70682857D02*
X118068571Y-70682857D01*
X117973333Y-70635238D01*
X117925714Y-70540000D01*
X117925714Y-70349523D01*
X117973333Y-70254285D01*
X118544761Y-70682857D02*
X118592380Y-70587619D01*
X118592380Y-70349523D01*
X118544761Y-70254285D01*
X118449523Y-70206666D01*
X118354285Y-70206666D01*
X118259047Y-70254285D01*
X118211428Y-70349523D01*
X118211428Y-70587619D01*
X118163809Y-70682857D01*
X117925714Y-71159047D02*
X118592380Y-71159047D01*
X118020952Y-71159047D02*
X117973333Y-71206666D01*
X117925714Y-71301904D01*
X117925714Y-71444761D01*
X117973333Y-71540000D01*
X118068571Y-71587619D01*
X118592380Y-71587619D01*
X118592380Y-72492380D02*
X117592380Y-72492380D01*
X118544761Y-72492380D02*
X118592380Y-72397142D01*
X118592380Y-72206666D01*
X118544761Y-72111428D01*
X118497142Y-72063809D01*
X118401904Y-72016190D01*
X118116190Y-72016190D01*
X118020952Y-72063809D01*
X117973333Y-72111428D01*
X117925714Y-72206666D01*
X117925714Y-72397142D01*
X117973333Y-72492380D01*
X118592380Y-72968571D02*
X117925714Y-72968571D01*
X117592380Y-72968571D02*
X117640000Y-72920952D01*
X117687619Y-72968571D01*
X117640000Y-73016190D01*
X117592380Y-72968571D01*
X117687619Y-72968571D01*
X117544761Y-74159047D02*
X118830476Y-73301904D01*
X120242380Y-61825714D02*
X120242380Y-61254285D01*
X120242380Y-61540000D02*
X119242380Y-61540000D01*
X119385238Y-61444761D01*
X119480476Y-61349523D01*
X119528095Y-61254285D01*
X119575714Y-62682857D02*
X120242380Y-62682857D01*
X119194761Y-62444761D02*
X119909047Y-62206666D01*
X119909047Y-62825714D01*
X120337619Y-62968571D02*
X120337619Y-63730476D01*
X120242380Y-63968571D02*
X119242380Y-63968571D01*
X119242380Y-64206666D01*
X119290000Y-64349523D01*
X119385238Y-64444761D01*
X119480476Y-64492380D01*
X119670952Y-64540000D01*
X119813809Y-64540000D01*
X120004285Y-64492380D01*
X120099523Y-64444761D01*
X120194761Y-64349523D01*
X120242380Y-64206666D01*
X120242380Y-63968571D01*
X120194761Y-65349523D02*
X120242380Y-65254285D01*
X120242380Y-65063809D01*
X120194761Y-64968571D01*
X120099523Y-64920952D01*
X119718571Y-64920952D01*
X119623333Y-64968571D01*
X119575714Y-65063809D01*
X119575714Y-65254285D01*
X119623333Y-65349523D01*
X119718571Y-65397142D01*
X119813809Y-65397142D01*
X119909047Y-64920952D01*
X120242380Y-65825714D02*
X119575714Y-65825714D01*
X119670952Y-65825714D02*
X119623333Y-65873333D01*
X119575714Y-65968571D01*
X119575714Y-66111428D01*
X119623333Y-66206666D01*
X119718571Y-66254285D01*
X120242380Y-66254285D01*
X119718571Y-66254285D02*
X119623333Y-66301904D01*
X119575714Y-66397142D01*
X119575714Y-66540000D01*
X119623333Y-66635238D01*
X119718571Y-66682857D01*
X120242380Y-66682857D01*
X120242380Y-67159047D02*
X119575714Y-67159047D01*
X119242380Y-67159047D02*
X119290000Y-67111428D01*
X119337619Y-67159047D01*
X119290000Y-67206666D01*
X119242380Y-67159047D01*
X119337619Y-67159047D01*
X120337619Y-67397142D02*
X120337619Y-68159047D01*
X120242380Y-68397142D02*
X119242380Y-68397142D01*
X119242380Y-68778095D01*
X119290000Y-68873333D01*
X119337619Y-68920952D01*
X119432857Y-68968571D01*
X119575714Y-68968571D01*
X119670952Y-68920952D01*
X119718571Y-68873333D01*
X119766190Y-68778095D01*
X119766190Y-68397142D01*
X120242380Y-69540000D02*
X120194761Y-69444761D01*
X120147142Y-69397142D01*
X120051904Y-69349523D01*
X119766190Y-69349523D01*
X119670952Y-69397142D01*
X119623333Y-69444761D01*
X119575714Y-69540000D01*
X119575714Y-69682857D01*
X119623333Y-69778095D01*
X119670952Y-69825714D01*
X119766190Y-69873333D01*
X120051904Y-69873333D01*
X120147142Y-69825714D01*
X120194761Y-69778095D01*
X120242380Y-69682857D01*
X120242380Y-69540000D01*
X119575714Y-70301904D02*
X120242380Y-70301904D01*
X119670952Y-70301904D02*
X119623333Y-70349523D01*
X119575714Y-70444761D01*
X119575714Y-70587619D01*
X119623333Y-70682857D01*
X119718571Y-70730476D01*
X120242380Y-70730476D01*
X119575714Y-71063809D02*
X119575714Y-71444761D01*
X119242380Y-71206666D02*
X120099523Y-71206666D01*
X120194761Y-71254285D01*
X120242380Y-71349523D01*
X120242380Y-71444761D01*
X120337619Y-71540000D02*
X120337619Y-72301904D01*
X120242380Y-72540000D02*
X119242380Y-72540000D01*
X119718571Y-72540000D02*
X119718571Y-73111428D01*
X120242380Y-73111428D02*
X119242380Y-73111428D01*
X120337619Y-73349523D02*
X120337619Y-74111428D01*
X120242380Y-74397142D02*
X120242380Y-74587619D01*
X120194761Y-74682857D01*
X120147142Y-74730476D01*
X120004285Y-74825714D01*
X119813809Y-74873333D01*
X119432857Y-74873333D01*
X119337619Y-74825714D01*
X119290000Y-74778095D01*
X119242380Y-74682857D01*
X119242380Y-74492380D01*
X119290000Y-74397142D01*
X119337619Y-74349523D01*
X119432857Y-74301904D01*
X119670952Y-74301904D01*
X119766190Y-74349523D01*
X119813809Y-74397142D01*
X119861428Y-74492380D01*
X119861428Y-74682857D01*
X119813809Y-74778095D01*
X119766190Y-74825714D01*
X119670952Y-74873333D01*
X120242380Y-75349523D02*
X120242380Y-75540000D01*
X120194761Y-75635238D01*
X120147142Y-75682857D01*
X120004285Y-75778095D01*
X119813809Y-75825714D01*
X119432857Y-75825714D01*
X119337619Y-75778095D01*
X119290000Y-75730476D01*
X119242380Y-75635238D01*
X119242380Y-75444761D01*
X119290000Y-75349523D01*
X119337619Y-75301904D01*
X119432857Y-75254285D01*
X119670952Y-75254285D01*
X119766190Y-75301904D01*
X119813809Y-75349523D01*
X119861428Y-75444761D01*
X119861428Y-75635238D01*
X119813809Y-75730476D01*
X119766190Y-75778095D01*
X119670952Y-75825714D01*
D11*
X115570000Y-81280000D02*
X101600000Y-81280000D01*
X100330000Y-80010000D02*
X100330000Y-72390000D01*
M02*
