%TF.GenerationSoftware,KiCad,Pcbnew,(5.1.9)-1*%
%TF.CreationDate,2021-06-01T10:14:56+02:00*%
%TF.ProjectId,14_Demi_Pont_H_99,31345f44-656d-4695-9f50-6f6e745f485f,rev?*%
%TF.SameCoordinates,Original*%
%TF.FileFunction,Copper,L1,Top*%
%TF.FilePolarity,Positive*%
%FSLAX46Y46*%
G04 Gerber Fmt 4.6, Leading zero omitted, Abs format (unit mm)*
G04 Created by KiCad (PCBNEW (5.1.9)-1) date 2021-06-01 10:14:56*
%MOMM*%
%LPD*%
G01*
G04 APERTURE LIST*
%TA.AperFunction,Profile*%
%ADD10C,0.050000*%
%TD*%
%TA.AperFunction,ComponentPad*%
%ADD11C,1.524000*%
%TD*%
%TA.AperFunction,ComponentPad*%
%ADD12C,0.100000*%
%TD*%
%TA.AperFunction,SMDPad,CuDef*%
%ADD13R,0.900000X1.200000*%
%TD*%
%TA.AperFunction,ViaPad*%
%ADD14C,1.000000*%
%TD*%
%TA.AperFunction,Conductor*%
%ADD15C,0.400000*%
%TD*%
%TA.AperFunction,Conductor*%
%ADD16C,0.254000*%
%TD*%
%TA.AperFunction,Conductor*%
%ADD17C,0.100000*%
%TD*%
G04 APERTURE END LIST*
D10*
X115570000Y-60960000D02*
X120650000Y-60960000D01*
X115570000Y-81280000D02*
X120650000Y-81280000D01*
X101600000Y-62230000D02*
X101600000Y-60960000D01*
X100330000Y-62230000D02*
X101600000Y-62230000D01*
X100330000Y-67310000D02*
X100330000Y-62230000D01*
X100330000Y-72390000D02*
X100330000Y-67310000D01*
X120650000Y-60960000D02*
X120650000Y-81280000D01*
X101600000Y-60960000D02*
X115570000Y-60960000D01*
X101600000Y-80010000D02*
X101600000Y-81280000D01*
X100330000Y-80010000D02*
X101600000Y-80010000D01*
X115570000Y-81280000D02*
X101600000Y-81280000D01*
X100330000Y-80010000D02*
X100330000Y-72390000D01*
D11*
%TO.P,J5,1*%
%TO.N,Vpower*%
X101600000Y-73660000D03*
%TA.AperFunction,ComponentPad*%
D12*
G36*
X101928132Y-74509917D02*
G01*
X101845251Y-74504703D01*
X101763275Y-74491425D01*
X101682986Y-74470212D01*
X101605149Y-74441265D01*
X101530509Y-74404861D01*
X101459778Y-74361346D01*
X101393631Y-74311138D01*
X101332698Y-74254714D01*
X101277563Y-74192613D01*
X101228750Y-74125429D01*
X101186727Y-74053802D01*
X101151894Y-73978416D01*
X101124583Y-73899990D01*
X101105056Y-73819274D01*
X101093498Y-73737038D01*
X101090021Y-73654066D01*
X101094656Y-73571151D01*
X101107361Y-73489084D01*
X101128013Y-73408648D01*
X101156416Y-73330612D01*
X101192299Y-73255719D01*
X101235318Y-73184686D01*
X101285064Y-73118190D01*
X101341061Y-73056865D01*
X101402775Y-73001297D01*
X101469617Y-72952017D01*
X101540949Y-72909495D01*
X101616090Y-72874136D01*
X101694323Y-72846278D01*
X101774901Y-72826188D01*
X101857055Y-72814057D01*
X101940000Y-72810000D01*
X104990000Y-72810000D01*
X104990000Y-74510000D01*
X101940000Y-74510000D01*
X101928132Y-74509917D01*
G37*
%TD.AperFunction*%
%TD*%
D11*
%TO.P,J4,1*%
%TO.N,+15V*%
X101600000Y-63500000D03*
%TA.AperFunction,ComponentPad*%
D12*
G36*
X101928132Y-64349917D02*
G01*
X101845251Y-64344703D01*
X101763275Y-64331425D01*
X101682986Y-64310212D01*
X101605149Y-64281265D01*
X101530509Y-64244861D01*
X101459778Y-64201346D01*
X101393631Y-64151138D01*
X101332698Y-64094714D01*
X101277563Y-64032613D01*
X101228750Y-63965429D01*
X101186727Y-63893802D01*
X101151894Y-63818416D01*
X101124583Y-63739990D01*
X101105056Y-63659274D01*
X101093498Y-63577038D01*
X101090021Y-63494066D01*
X101094656Y-63411151D01*
X101107361Y-63329084D01*
X101128013Y-63248648D01*
X101156416Y-63170612D01*
X101192299Y-63095719D01*
X101235318Y-63024686D01*
X101285064Y-62958190D01*
X101341061Y-62896865D01*
X101402775Y-62841297D01*
X101469617Y-62792017D01*
X101540949Y-62749495D01*
X101616090Y-62714136D01*
X101694323Y-62686278D01*
X101774901Y-62666188D01*
X101857055Y-62654057D01*
X101940000Y-62650000D01*
X104990000Y-62650000D01*
X104990000Y-64350000D01*
X101940000Y-64350000D01*
X101928132Y-64349917D01*
G37*
%TD.AperFunction*%
%TD*%
D11*
%TO.P,J6,1*%
%TO.N,OUT*%
X101600000Y-76200000D03*
%TA.AperFunction,ComponentPad*%
D12*
G36*
X101928132Y-77049917D02*
G01*
X101845251Y-77044703D01*
X101763275Y-77031425D01*
X101682986Y-77010212D01*
X101605149Y-76981265D01*
X101530509Y-76944861D01*
X101459778Y-76901346D01*
X101393631Y-76851138D01*
X101332698Y-76794714D01*
X101277563Y-76732613D01*
X101228750Y-76665429D01*
X101186727Y-76593802D01*
X101151894Y-76518416D01*
X101124583Y-76439990D01*
X101105056Y-76359274D01*
X101093498Y-76277038D01*
X101090021Y-76194066D01*
X101094656Y-76111151D01*
X101107361Y-76029084D01*
X101128013Y-75948648D01*
X101156416Y-75870612D01*
X101192299Y-75795719D01*
X101235318Y-75724686D01*
X101285064Y-75658190D01*
X101341061Y-75596865D01*
X101402775Y-75541297D01*
X101469617Y-75492017D01*
X101540949Y-75449495D01*
X101616090Y-75414136D01*
X101694323Y-75386278D01*
X101774901Y-75366188D01*
X101857055Y-75354057D01*
X101940000Y-75350000D01*
X104990000Y-75350000D01*
X104990000Y-77050000D01*
X101940000Y-77050000D01*
X101928132Y-77049917D01*
G37*
%TD.AperFunction*%
%TD*%
%TO.P,R4,2*%
%TO.N,GND*%
%TA.AperFunction,SMDPad,CuDef*%
G36*
G01*
X118152500Y-71090000D02*
X118627500Y-71090000D01*
G75*
G02*
X118865000Y-71327500I0J-237500D01*
G01*
X118865000Y-71902500D01*
G75*
G02*
X118627500Y-72140000I-237500J0D01*
G01*
X118152500Y-72140000D01*
G75*
G02*
X117915000Y-71902500I0J237500D01*
G01*
X117915000Y-71327500D01*
G75*
G02*
X118152500Y-71090000I237500J0D01*
G01*
G37*
%TD.AperFunction*%
%TO.P,R4,1*%
%TO.N,Net-(Q2-Pad4)*%
%TA.AperFunction,SMDPad,CuDef*%
G36*
G01*
X118152500Y-69340000D02*
X118627500Y-69340000D01*
G75*
G02*
X118865000Y-69577500I0J-237500D01*
G01*
X118865000Y-70152500D01*
G75*
G02*
X118627500Y-70390000I-237500J0D01*
G01*
X118152500Y-70390000D01*
G75*
G02*
X117915000Y-70152500I0J237500D01*
G01*
X117915000Y-69577500D01*
G75*
G02*
X118152500Y-69340000I237500J0D01*
G01*
G37*
%TD.AperFunction*%
%TD*%
%TO.P,R3,2*%
%TO.N,Net-(Q2-Pad4)*%
%TA.AperFunction,SMDPad,CuDef*%
G36*
G01*
X116090000Y-68877500D02*
X116090000Y-68402500D01*
G75*
G02*
X116327500Y-68165000I237500J0D01*
G01*
X116902500Y-68165000D01*
G75*
G02*
X117140000Y-68402500I0J-237500D01*
G01*
X117140000Y-68877500D01*
G75*
G02*
X116902500Y-69115000I-237500J0D01*
G01*
X116327500Y-69115000D01*
G75*
G02*
X116090000Y-68877500I0J237500D01*
G01*
G37*
%TD.AperFunction*%
%TO.P,R3,1*%
%TO.N,Net-(R3-Pad1)*%
%TA.AperFunction,SMDPad,CuDef*%
G36*
G01*
X114340000Y-68877500D02*
X114340000Y-68402500D01*
G75*
G02*
X114577500Y-68165000I237500J0D01*
G01*
X115152500Y-68165000D01*
G75*
G02*
X115390000Y-68402500I0J-237500D01*
G01*
X115390000Y-68877500D01*
G75*
G02*
X115152500Y-69115000I-237500J0D01*
G01*
X114577500Y-69115000D01*
G75*
G02*
X114340000Y-68877500I0J237500D01*
G01*
G37*
%TD.AperFunction*%
%TD*%
D11*
%TO.P,J3,1*%
%TO.N,GND*%
X101600000Y-71120000D03*
%TA.AperFunction,ComponentPad*%
D12*
G36*
X101928132Y-71969917D02*
G01*
X101845251Y-71964703D01*
X101763275Y-71951425D01*
X101682986Y-71930212D01*
X101605149Y-71901265D01*
X101530509Y-71864861D01*
X101459778Y-71821346D01*
X101393631Y-71771138D01*
X101332698Y-71714714D01*
X101277563Y-71652613D01*
X101228750Y-71585429D01*
X101186727Y-71513802D01*
X101151894Y-71438416D01*
X101124583Y-71359990D01*
X101105056Y-71279274D01*
X101093498Y-71197038D01*
X101090021Y-71114066D01*
X101094656Y-71031151D01*
X101107361Y-70949084D01*
X101128013Y-70868648D01*
X101156416Y-70790612D01*
X101192299Y-70715719D01*
X101235318Y-70644686D01*
X101285064Y-70578190D01*
X101341061Y-70516865D01*
X101402775Y-70461297D01*
X101469617Y-70412017D01*
X101540949Y-70369495D01*
X101616090Y-70334136D01*
X101694323Y-70306278D01*
X101774901Y-70286188D01*
X101857055Y-70274057D01*
X101940000Y-70270000D01*
X104990000Y-70270000D01*
X104990000Y-71970000D01*
X101940000Y-71970000D01*
X101928132Y-71969917D01*
G37*
%TD.AperFunction*%
%TD*%
D11*
%TO.P,J1,1*%
%TO.N,Cmd_Haut*%
X101600000Y-66040000D03*
%TA.AperFunction,ComponentPad*%
D12*
G36*
X101928132Y-66889917D02*
G01*
X101845251Y-66884703D01*
X101763275Y-66871425D01*
X101682986Y-66850212D01*
X101605149Y-66821265D01*
X101530509Y-66784861D01*
X101459778Y-66741346D01*
X101393631Y-66691138D01*
X101332698Y-66634714D01*
X101277563Y-66572613D01*
X101228750Y-66505429D01*
X101186727Y-66433802D01*
X101151894Y-66358416D01*
X101124583Y-66279990D01*
X101105056Y-66199274D01*
X101093498Y-66117038D01*
X101090021Y-66034066D01*
X101094656Y-65951151D01*
X101107361Y-65869084D01*
X101128013Y-65788648D01*
X101156416Y-65710612D01*
X101192299Y-65635719D01*
X101235318Y-65564686D01*
X101285064Y-65498190D01*
X101341061Y-65436865D01*
X101402775Y-65381297D01*
X101469617Y-65332017D01*
X101540949Y-65289495D01*
X101616090Y-65254136D01*
X101694323Y-65226278D01*
X101774901Y-65206188D01*
X101857055Y-65194057D01*
X101940000Y-65190000D01*
X104990000Y-65190000D01*
X104990000Y-66890000D01*
X101940000Y-66890000D01*
X101928132Y-66889917D01*
G37*
%TD.AperFunction*%
%TD*%
%TO.P,Q2,8*%
%TO.N,OUT*%
%TA.AperFunction,SMDPad,CuDef*%
G36*
G01*
X116395000Y-77490000D02*
X116695000Y-77490000D01*
G75*
G02*
X116845000Y-77640000I0J-150000D01*
G01*
X116845000Y-79290000D01*
G75*
G02*
X116695000Y-79440000I-150000J0D01*
G01*
X116395000Y-79440000D01*
G75*
G02*
X116245000Y-79290000I0J150000D01*
G01*
X116245000Y-77640000D01*
G75*
G02*
X116395000Y-77490000I150000J0D01*
G01*
G37*
%TD.AperFunction*%
%TO.P,Q2,7*%
%TA.AperFunction,SMDPad,CuDef*%
G36*
G01*
X115125000Y-77490000D02*
X115425000Y-77490000D01*
G75*
G02*
X115575000Y-77640000I0J-150000D01*
G01*
X115575000Y-79290000D01*
G75*
G02*
X115425000Y-79440000I-150000J0D01*
G01*
X115125000Y-79440000D01*
G75*
G02*
X114975000Y-79290000I0J150000D01*
G01*
X114975000Y-77640000D01*
G75*
G02*
X115125000Y-77490000I150000J0D01*
G01*
G37*
%TD.AperFunction*%
%TO.P,Q2,6*%
%TA.AperFunction,SMDPad,CuDef*%
G36*
G01*
X113855000Y-77490000D02*
X114155000Y-77490000D01*
G75*
G02*
X114305000Y-77640000I0J-150000D01*
G01*
X114305000Y-79290000D01*
G75*
G02*
X114155000Y-79440000I-150000J0D01*
G01*
X113855000Y-79440000D01*
G75*
G02*
X113705000Y-79290000I0J150000D01*
G01*
X113705000Y-77640000D01*
G75*
G02*
X113855000Y-77490000I150000J0D01*
G01*
G37*
%TD.AperFunction*%
%TO.P,Q2,5*%
%TA.AperFunction,SMDPad,CuDef*%
G36*
G01*
X112585000Y-77490000D02*
X112885000Y-77490000D01*
G75*
G02*
X113035000Y-77640000I0J-150000D01*
G01*
X113035000Y-79290000D01*
G75*
G02*
X112885000Y-79440000I-150000J0D01*
G01*
X112585000Y-79440000D01*
G75*
G02*
X112435000Y-79290000I0J150000D01*
G01*
X112435000Y-77640000D01*
G75*
G02*
X112585000Y-77490000I150000J0D01*
G01*
G37*
%TD.AperFunction*%
%TO.P,Q2,4*%
%TO.N,Net-(Q2-Pad4)*%
%TA.AperFunction,SMDPad,CuDef*%
G36*
G01*
X112585000Y-72540000D02*
X112885000Y-72540000D01*
G75*
G02*
X113035000Y-72690000I0J-150000D01*
G01*
X113035000Y-74340000D01*
G75*
G02*
X112885000Y-74490000I-150000J0D01*
G01*
X112585000Y-74490000D01*
G75*
G02*
X112435000Y-74340000I0J150000D01*
G01*
X112435000Y-72690000D01*
G75*
G02*
X112585000Y-72540000I150000J0D01*
G01*
G37*
%TD.AperFunction*%
%TO.P,Q2,3*%
%TO.N,GND*%
%TA.AperFunction,SMDPad,CuDef*%
G36*
G01*
X113855000Y-72540000D02*
X114155000Y-72540000D01*
G75*
G02*
X114305000Y-72690000I0J-150000D01*
G01*
X114305000Y-74340000D01*
G75*
G02*
X114155000Y-74490000I-150000J0D01*
G01*
X113855000Y-74490000D01*
G75*
G02*
X113705000Y-74340000I0J150000D01*
G01*
X113705000Y-72690000D01*
G75*
G02*
X113855000Y-72540000I150000J0D01*
G01*
G37*
%TD.AperFunction*%
%TO.P,Q2,2*%
%TA.AperFunction,SMDPad,CuDef*%
G36*
G01*
X115125000Y-72540000D02*
X115425000Y-72540000D01*
G75*
G02*
X115575000Y-72690000I0J-150000D01*
G01*
X115575000Y-74340000D01*
G75*
G02*
X115425000Y-74490000I-150000J0D01*
G01*
X115125000Y-74490000D01*
G75*
G02*
X114975000Y-74340000I0J150000D01*
G01*
X114975000Y-72690000D01*
G75*
G02*
X115125000Y-72540000I150000J0D01*
G01*
G37*
%TD.AperFunction*%
%TO.P,Q2,1*%
%TA.AperFunction,SMDPad,CuDef*%
G36*
G01*
X116395000Y-72540000D02*
X116695000Y-72540000D01*
G75*
G02*
X116845000Y-72690000I0J-150000D01*
G01*
X116845000Y-74340000D01*
G75*
G02*
X116695000Y-74490000I-150000J0D01*
G01*
X116395000Y-74490000D01*
G75*
G02*
X116245000Y-74340000I0J150000D01*
G01*
X116245000Y-72690000D01*
G75*
G02*
X116395000Y-72540000I150000J0D01*
G01*
G37*
%TD.AperFunction*%
%TD*%
%TO.P,C1,2*%
%TO.N,Net-(C1-Pad2)*%
%TA.AperFunction,SMDPad,CuDef*%
G36*
G01*
X117065000Y-62990000D02*
X117065000Y-63490000D01*
G75*
G02*
X116840000Y-63715000I-225000J0D01*
G01*
X116390000Y-63715000D01*
G75*
G02*
X116165000Y-63490000I0J225000D01*
G01*
X116165000Y-62990000D01*
G75*
G02*
X116390000Y-62765000I225000J0D01*
G01*
X116840000Y-62765000D01*
G75*
G02*
X117065000Y-62990000I0J-225000D01*
G01*
G37*
%TD.AperFunction*%
%TO.P,C1,1*%
%TO.N,OUT*%
%TA.AperFunction,SMDPad,CuDef*%
G36*
G01*
X118615000Y-62990000D02*
X118615000Y-63490000D01*
G75*
G02*
X118390000Y-63715000I-225000J0D01*
G01*
X117940000Y-63715000D01*
G75*
G02*
X117715000Y-63490000I0J225000D01*
G01*
X117715000Y-62990000D01*
G75*
G02*
X117940000Y-62765000I225000J0D01*
G01*
X118390000Y-62765000D01*
G75*
G02*
X118615000Y-62990000I0J-225000D01*
G01*
G37*
%TD.AperFunction*%
%TD*%
%TO.P,C2,2*%
%TO.N,GND*%
%TA.AperFunction,SMDPad,CuDef*%
G36*
G01*
X107490000Y-62139999D02*
X107490000Y-64340001D01*
G75*
G02*
X107240001Y-64590000I-249999J0D01*
G01*
X106589999Y-64590000D01*
G75*
G02*
X106340000Y-64340001I0J249999D01*
G01*
X106340000Y-62139999D01*
G75*
G02*
X106589999Y-61890000I249999J0D01*
G01*
X107240001Y-61890000D01*
G75*
G02*
X107490000Y-62139999I0J-249999D01*
G01*
G37*
%TD.AperFunction*%
%TO.P,C2,1*%
%TO.N,+15V*%
%TA.AperFunction,SMDPad,CuDef*%
G36*
G01*
X110440000Y-62139999D02*
X110440000Y-64340001D01*
G75*
G02*
X110190001Y-64590000I-249999J0D01*
G01*
X109539999Y-64590000D01*
G75*
G02*
X109290000Y-64340001I0J249999D01*
G01*
X109290000Y-62139999D01*
G75*
G02*
X109539999Y-61890000I249999J0D01*
G01*
X110190001Y-61890000D01*
G75*
G02*
X110440000Y-62139999I0J-249999D01*
G01*
G37*
%TD.AperFunction*%
%TD*%
D13*
%TO.P,D1,2*%
%TO.N,+15V*%
X111740000Y-63240000D03*
%TO.P,D1,1*%
%TO.N,Net-(C1-Pad2)*%
X115040000Y-63240000D03*
%TD*%
D11*
%TO.P,J2,1*%
%TO.N,Cmd_Bas*%
X101600000Y-68580000D03*
%TA.AperFunction,ComponentPad*%
D12*
G36*
X101928132Y-69429917D02*
G01*
X101845251Y-69424703D01*
X101763275Y-69411425D01*
X101682986Y-69390212D01*
X101605149Y-69361265D01*
X101530509Y-69324861D01*
X101459778Y-69281346D01*
X101393631Y-69231138D01*
X101332698Y-69174714D01*
X101277563Y-69112613D01*
X101228750Y-69045429D01*
X101186727Y-68973802D01*
X101151894Y-68898416D01*
X101124583Y-68819990D01*
X101105056Y-68739274D01*
X101093498Y-68657038D01*
X101090021Y-68574066D01*
X101094656Y-68491151D01*
X101107361Y-68409084D01*
X101128013Y-68328648D01*
X101156416Y-68250612D01*
X101192299Y-68175719D01*
X101235318Y-68104686D01*
X101285064Y-68038190D01*
X101341061Y-67976865D01*
X101402775Y-67921297D01*
X101469617Y-67872017D01*
X101540949Y-67829495D01*
X101616090Y-67794136D01*
X101694323Y-67766278D01*
X101774901Y-67746188D01*
X101857055Y-67734057D01*
X101940000Y-67730000D01*
X104990000Y-67730000D01*
X104990000Y-69430000D01*
X101940000Y-69430000D01*
X101928132Y-69429917D01*
G37*
%TD.AperFunction*%
%TD*%
D11*
%TO.P,J7,1*%
%TO.N,GND*%
X101600000Y-78740000D03*
%TA.AperFunction,ComponentPad*%
D12*
G36*
X101928132Y-79589917D02*
G01*
X101845251Y-79584703D01*
X101763275Y-79571425D01*
X101682986Y-79550212D01*
X101605149Y-79521265D01*
X101530509Y-79484861D01*
X101459778Y-79441346D01*
X101393631Y-79391138D01*
X101332698Y-79334714D01*
X101277563Y-79272613D01*
X101228750Y-79205429D01*
X101186727Y-79133802D01*
X101151894Y-79058416D01*
X101124583Y-78979990D01*
X101105056Y-78899274D01*
X101093498Y-78817038D01*
X101090021Y-78734066D01*
X101094656Y-78651151D01*
X101107361Y-78569084D01*
X101128013Y-78488648D01*
X101156416Y-78410612D01*
X101192299Y-78335719D01*
X101235318Y-78264686D01*
X101285064Y-78198190D01*
X101341061Y-78136865D01*
X101402775Y-78081297D01*
X101469617Y-78032017D01*
X101540949Y-77989495D01*
X101616090Y-77954136D01*
X101694323Y-77926278D01*
X101774901Y-77906188D01*
X101857055Y-77894057D01*
X101940000Y-77890000D01*
X104990000Y-77890000D01*
X104990000Y-79590000D01*
X101940000Y-79590000D01*
X101928132Y-79589917D01*
G37*
%TD.AperFunction*%
%TD*%
%TO.P,Q1,8*%
%TO.N,Vpower*%
%TA.AperFunction,SMDPad,CuDef*%
G36*
G01*
X107135000Y-74490000D02*
X106835000Y-74490000D01*
G75*
G02*
X106685000Y-74340000I0J150000D01*
G01*
X106685000Y-72690000D01*
G75*
G02*
X106835000Y-72540000I150000J0D01*
G01*
X107135000Y-72540000D01*
G75*
G02*
X107285000Y-72690000I0J-150000D01*
G01*
X107285000Y-74340000D01*
G75*
G02*
X107135000Y-74490000I-150000J0D01*
G01*
G37*
%TD.AperFunction*%
%TO.P,Q1,7*%
%TA.AperFunction,SMDPad,CuDef*%
G36*
G01*
X108405000Y-74490000D02*
X108105000Y-74490000D01*
G75*
G02*
X107955000Y-74340000I0J150000D01*
G01*
X107955000Y-72690000D01*
G75*
G02*
X108105000Y-72540000I150000J0D01*
G01*
X108405000Y-72540000D01*
G75*
G02*
X108555000Y-72690000I0J-150000D01*
G01*
X108555000Y-74340000D01*
G75*
G02*
X108405000Y-74490000I-150000J0D01*
G01*
G37*
%TD.AperFunction*%
%TO.P,Q1,6*%
%TA.AperFunction,SMDPad,CuDef*%
G36*
G01*
X109675000Y-74490000D02*
X109375000Y-74490000D01*
G75*
G02*
X109225000Y-74340000I0J150000D01*
G01*
X109225000Y-72690000D01*
G75*
G02*
X109375000Y-72540000I150000J0D01*
G01*
X109675000Y-72540000D01*
G75*
G02*
X109825000Y-72690000I0J-150000D01*
G01*
X109825000Y-74340000D01*
G75*
G02*
X109675000Y-74490000I-150000J0D01*
G01*
G37*
%TD.AperFunction*%
%TO.P,Q1,5*%
%TA.AperFunction,SMDPad,CuDef*%
G36*
G01*
X110945000Y-74490000D02*
X110645000Y-74490000D01*
G75*
G02*
X110495000Y-74340000I0J150000D01*
G01*
X110495000Y-72690000D01*
G75*
G02*
X110645000Y-72540000I150000J0D01*
G01*
X110945000Y-72540000D01*
G75*
G02*
X111095000Y-72690000I0J-150000D01*
G01*
X111095000Y-74340000D01*
G75*
G02*
X110945000Y-74490000I-150000J0D01*
G01*
G37*
%TD.AperFunction*%
%TO.P,Q1,4*%
%TO.N,Net-(Q1-Pad4)*%
%TA.AperFunction,SMDPad,CuDef*%
G36*
G01*
X110945000Y-79440000D02*
X110645000Y-79440000D01*
G75*
G02*
X110495000Y-79290000I0J150000D01*
G01*
X110495000Y-77640000D01*
G75*
G02*
X110645000Y-77490000I150000J0D01*
G01*
X110945000Y-77490000D01*
G75*
G02*
X111095000Y-77640000I0J-150000D01*
G01*
X111095000Y-79290000D01*
G75*
G02*
X110945000Y-79440000I-150000J0D01*
G01*
G37*
%TD.AperFunction*%
%TO.P,Q1,3*%
%TO.N,OUT*%
%TA.AperFunction,SMDPad,CuDef*%
G36*
G01*
X109675000Y-79440000D02*
X109375000Y-79440000D01*
G75*
G02*
X109225000Y-79290000I0J150000D01*
G01*
X109225000Y-77640000D01*
G75*
G02*
X109375000Y-77490000I150000J0D01*
G01*
X109675000Y-77490000D01*
G75*
G02*
X109825000Y-77640000I0J-150000D01*
G01*
X109825000Y-79290000D01*
G75*
G02*
X109675000Y-79440000I-150000J0D01*
G01*
G37*
%TD.AperFunction*%
%TO.P,Q1,2*%
%TA.AperFunction,SMDPad,CuDef*%
G36*
G01*
X108405000Y-79440000D02*
X108105000Y-79440000D01*
G75*
G02*
X107955000Y-79290000I0J150000D01*
G01*
X107955000Y-77640000D01*
G75*
G02*
X108105000Y-77490000I150000J0D01*
G01*
X108405000Y-77490000D01*
G75*
G02*
X108555000Y-77640000I0J-150000D01*
G01*
X108555000Y-79290000D01*
G75*
G02*
X108405000Y-79440000I-150000J0D01*
G01*
G37*
%TD.AperFunction*%
%TO.P,Q1,1*%
%TA.AperFunction,SMDPad,CuDef*%
G36*
G01*
X107135000Y-79440000D02*
X106835000Y-79440000D01*
G75*
G02*
X106685000Y-79290000I0J150000D01*
G01*
X106685000Y-77640000D01*
G75*
G02*
X106835000Y-77490000I150000J0D01*
G01*
X107135000Y-77490000D01*
G75*
G02*
X107285000Y-77640000I0J-150000D01*
G01*
X107285000Y-79290000D01*
G75*
G02*
X107135000Y-79440000I-150000J0D01*
G01*
G37*
%TD.AperFunction*%
%TD*%
%TO.P,R1,2*%
%TO.N,Net-(Q1-Pad4)*%
%TA.AperFunction,SMDPad,CuDef*%
G36*
G01*
X116215000Y-66177500D02*
X116215000Y-65702500D01*
G75*
G02*
X116452500Y-65465000I237500J0D01*
G01*
X117027500Y-65465000D01*
G75*
G02*
X117265000Y-65702500I0J-237500D01*
G01*
X117265000Y-66177500D01*
G75*
G02*
X117027500Y-66415000I-237500J0D01*
G01*
X116452500Y-66415000D01*
G75*
G02*
X116215000Y-66177500I0J237500D01*
G01*
G37*
%TD.AperFunction*%
%TO.P,R1,1*%
%TO.N,Net-(R1-Pad1)*%
%TA.AperFunction,SMDPad,CuDef*%
G36*
G01*
X114465000Y-66177500D02*
X114465000Y-65702500D01*
G75*
G02*
X114702500Y-65465000I237500J0D01*
G01*
X115277500Y-65465000D01*
G75*
G02*
X115515000Y-65702500I0J-237500D01*
G01*
X115515000Y-66177500D01*
G75*
G02*
X115277500Y-66415000I-237500J0D01*
G01*
X114702500Y-66415000D01*
G75*
G02*
X114465000Y-66177500I0J237500D01*
G01*
G37*
%TD.AperFunction*%
%TD*%
%TO.P,R2,2*%
%TO.N,OUT*%
%TA.AperFunction,SMDPad,CuDef*%
G36*
G01*
X118627500Y-65640000D02*
X118152500Y-65640000D01*
G75*
G02*
X117915000Y-65402500I0J237500D01*
G01*
X117915000Y-64827500D01*
G75*
G02*
X118152500Y-64590000I237500J0D01*
G01*
X118627500Y-64590000D01*
G75*
G02*
X118865000Y-64827500I0J-237500D01*
G01*
X118865000Y-65402500D01*
G75*
G02*
X118627500Y-65640000I-237500J0D01*
G01*
G37*
%TD.AperFunction*%
%TO.P,R2,1*%
%TO.N,Net-(Q1-Pad4)*%
%TA.AperFunction,SMDPad,CuDef*%
G36*
G01*
X118627500Y-67390000D02*
X118152500Y-67390000D01*
G75*
G02*
X117915000Y-67152500I0J237500D01*
G01*
X117915000Y-66577500D01*
G75*
G02*
X118152500Y-66340000I237500J0D01*
G01*
X118627500Y-66340000D01*
G75*
G02*
X118865000Y-66577500I0J-237500D01*
G01*
X118865000Y-67152500D01*
G75*
G02*
X118627500Y-67390000I-237500J0D01*
G01*
G37*
%TD.AperFunction*%
%TD*%
%TO.P,U1,8*%
%TO.N,Net-(C1-Pad2)*%
%TA.AperFunction,SMDPad,CuDef*%
G36*
G01*
X111690000Y-65985000D02*
X111690000Y-65685000D01*
G75*
G02*
X111840000Y-65535000I150000J0D01*
G01*
X113190000Y-65535000D01*
G75*
G02*
X113340000Y-65685000I0J-150000D01*
G01*
X113340000Y-65985000D01*
G75*
G02*
X113190000Y-66135000I-150000J0D01*
G01*
X111840000Y-66135000D01*
G75*
G02*
X111690000Y-65985000I0J150000D01*
G01*
G37*
%TD.AperFunction*%
%TO.P,U1,7*%
%TO.N,Net-(R1-Pad1)*%
%TA.AperFunction,SMDPad,CuDef*%
G36*
G01*
X111690000Y-67255000D02*
X111690000Y-66955000D01*
G75*
G02*
X111840000Y-66805000I150000J0D01*
G01*
X113190000Y-66805000D01*
G75*
G02*
X113340000Y-66955000I0J-150000D01*
G01*
X113340000Y-67255000D01*
G75*
G02*
X113190000Y-67405000I-150000J0D01*
G01*
X111840000Y-67405000D01*
G75*
G02*
X111690000Y-67255000I0J150000D01*
G01*
G37*
%TD.AperFunction*%
%TO.P,U1,6*%
%TO.N,OUT*%
%TA.AperFunction,SMDPad,CuDef*%
G36*
G01*
X111690000Y-68525000D02*
X111690000Y-68225000D01*
G75*
G02*
X111840000Y-68075000I150000J0D01*
G01*
X113190000Y-68075000D01*
G75*
G02*
X113340000Y-68225000I0J-150000D01*
G01*
X113340000Y-68525000D01*
G75*
G02*
X113190000Y-68675000I-150000J0D01*
G01*
X111840000Y-68675000D01*
G75*
G02*
X111690000Y-68525000I0J150000D01*
G01*
G37*
%TD.AperFunction*%
%TO.P,U1,5*%
%TO.N,Net-(R3-Pad1)*%
%TA.AperFunction,SMDPad,CuDef*%
G36*
G01*
X111690000Y-69795000D02*
X111690000Y-69495000D01*
G75*
G02*
X111840000Y-69345000I150000J0D01*
G01*
X113190000Y-69345000D01*
G75*
G02*
X113340000Y-69495000I0J-150000D01*
G01*
X113340000Y-69795000D01*
G75*
G02*
X113190000Y-69945000I-150000J0D01*
G01*
X111840000Y-69945000D01*
G75*
G02*
X111690000Y-69795000I0J150000D01*
G01*
G37*
%TD.AperFunction*%
%TO.P,U1,4*%
%TO.N,GND*%
%TA.AperFunction,SMDPad,CuDef*%
G36*
G01*
X106440000Y-69795000D02*
X106440000Y-69495000D01*
G75*
G02*
X106590000Y-69345000I150000J0D01*
G01*
X107940000Y-69345000D01*
G75*
G02*
X108090000Y-69495000I0J-150000D01*
G01*
X108090000Y-69795000D01*
G75*
G02*
X107940000Y-69945000I-150000J0D01*
G01*
X106590000Y-69945000D01*
G75*
G02*
X106440000Y-69795000I0J150000D01*
G01*
G37*
%TD.AperFunction*%
%TO.P,U1,3*%
%TO.N,Cmd_Bas*%
%TA.AperFunction,SMDPad,CuDef*%
G36*
G01*
X106440000Y-68525000D02*
X106440000Y-68225000D01*
G75*
G02*
X106590000Y-68075000I150000J0D01*
G01*
X107940000Y-68075000D01*
G75*
G02*
X108090000Y-68225000I0J-150000D01*
G01*
X108090000Y-68525000D01*
G75*
G02*
X107940000Y-68675000I-150000J0D01*
G01*
X106590000Y-68675000D01*
G75*
G02*
X106440000Y-68525000I0J150000D01*
G01*
G37*
%TD.AperFunction*%
%TO.P,U1,2*%
%TO.N,Cmd_Haut*%
%TA.AperFunction,SMDPad,CuDef*%
G36*
G01*
X106440000Y-67255000D02*
X106440000Y-66955000D01*
G75*
G02*
X106590000Y-66805000I150000J0D01*
G01*
X107940000Y-66805000D01*
G75*
G02*
X108090000Y-66955000I0J-150000D01*
G01*
X108090000Y-67255000D01*
G75*
G02*
X107940000Y-67405000I-150000J0D01*
G01*
X106590000Y-67405000D01*
G75*
G02*
X106440000Y-67255000I0J150000D01*
G01*
G37*
%TD.AperFunction*%
%TO.P,U1,1*%
%TO.N,+15V*%
%TA.AperFunction,SMDPad,CuDef*%
G36*
G01*
X106440000Y-65985000D02*
X106440000Y-65685000D01*
G75*
G02*
X106590000Y-65535000I150000J0D01*
G01*
X107940000Y-65535000D01*
G75*
G02*
X108090000Y-65685000I0J-150000D01*
G01*
X108090000Y-65985000D01*
G75*
G02*
X107940000Y-66135000I-150000J0D01*
G01*
X106590000Y-66135000D01*
G75*
G02*
X106440000Y-65985000I0J150000D01*
G01*
G37*
%TD.AperFunction*%
%TD*%
D14*
%TO.N,OUT*%
X116640000Y-67340000D03*
X117140000Y-64640000D03*
X118940000Y-77340000D03*
%TO.N,Net-(Q1-Pad4)*%
X110840000Y-80140000D03*
X118440000Y-68340000D03*
%TO.N,GND*%
X114040000Y-71540000D03*
X115340000Y-71540000D03*
X116640000Y-71540000D03*
X105740000Y-62140000D03*
X117940000Y-72940000D03*
X117940000Y-74340000D03*
X117940000Y-75740000D03*
%TD*%
D15*
%TO.N,OUT*%
X116545000Y-76665000D02*
X116080000Y-76200000D01*
X115275000Y-76305000D02*
X115380000Y-76200000D01*
X115380000Y-76200000D02*
X116080000Y-76200000D01*
X115275000Y-78465000D02*
X115275000Y-76305000D01*
X114005000Y-76305000D02*
X113900000Y-76200000D01*
X114005000Y-78465000D02*
X114005000Y-76305000D01*
X113900000Y-76200000D02*
X115380000Y-76200000D01*
X112735000Y-76335000D02*
X112600000Y-76200000D01*
X112735000Y-78465000D02*
X112735000Y-76335000D01*
X112600000Y-76200000D02*
X113900000Y-76200000D01*
X109525000Y-76325000D02*
X109400000Y-76200000D01*
X109525000Y-78465000D02*
X109525000Y-76325000D01*
X109400000Y-76200000D02*
X112600000Y-76200000D01*
X108255000Y-76225000D02*
X108280000Y-76200000D01*
X108255000Y-78465000D02*
X108255000Y-76225000D01*
X108280000Y-76200000D02*
X109400000Y-76200000D01*
X106985000Y-76285000D02*
X106900000Y-76200000D01*
X106985000Y-78465000D02*
X106985000Y-76285000D01*
X106900000Y-76200000D02*
X108280000Y-76200000D01*
X104140000Y-76200000D02*
X106900000Y-76200000D01*
X118390000Y-63465000D02*
X118165000Y-63240000D01*
X117690000Y-64090000D02*
X118390000Y-64090000D01*
X117140000Y-64640000D02*
X117690000Y-64090000D01*
X118390000Y-64090000D02*
X118390000Y-63465000D01*
X118390000Y-65115000D02*
X118390000Y-64090000D01*
X116545000Y-77345000D02*
X118735000Y-77345000D01*
X116545000Y-78465000D02*
X116545000Y-77345000D01*
X116545000Y-77345000D02*
X116545000Y-76665000D01*
X118735000Y-77345000D02*
X118940000Y-77140000D01*
X114440000Y-67340000D02*
X116640000Y-67340000D01*
X113575000Y-68205000D02*
X114440000Y-67340000D01*
X113405000Y-68375000D02*
X114440000Y-67340000D01*
X112515000Y-68375000D02*
X113405000Y-68375000D01*
%TO.N,Net-(Q1-Pad4)*%
X110795000Y-80095000D02*
X110840000Y-80140000D01*
X110795000Y-78465000D02*
X110795000Y-80095000D01*
X118390000Y-68290000D02*
X118440000Y-68340000D01*
X118390000Y-66865000D02*
X118390000Y-68290000D01*
X116740000Y-65940000D02*
X117340000Y-65940000D01*
X117340000Y-65940000D02*
X117590000Y-66190000D01*
X117590000Y-66190000D02*
X117590000Y-67490000D01*
X117590000Y-67490000D02*
X118440000Y-68340000D01*
%TO.N,GND*%
X114005000Y-71575000D02*
X114040000Y-71540000D01*
X114005000Y-73515000D02*
X114005000Y-71575000D01*
X107265000Y-69645000D02*
X106235000Y-69645000D01*
X104760000Y-71120000D02*
X104140000Y-71120000D01*
X106235000Y-69645000D02*
X104760000Y-71120000D01*
X115275000Y-71605000D02*
X115340000Y-71540000D01*
X115275000Y-73515000D02*
X115275000Y-71605000D01*
X116545000Y-71645000D02*
X116540000Y-71640000D01*
X116545000Y-73515000D02*
X116545000Y-71645000D01*
X116715000Y-71615000D02*
X116640000Y-71540000D01*
X106840000Y-63240000D02*
X105740000Y-62140000D01*
X106915000Y-63240000D02*
X106840000Y-63240000D01*
X117315000Y-72315000D02*
X117315000Y-71615000D01*
X117940000Y-72940000D02*
X117315000Y-72315000D01*
X117315000Y-71615000D02*
X116715000Y-71615000D01*
X118390000Y-71615000D02*
X117315000Y-71615000D01*
%TO.N,Net-(C1-Pad2)*%
X115740000Y-63240000D02*
X115040000Y-63240000D01*
X116615000Y-63240000D02*
X115740000Y-63240000D01*
X115740000Y-64240000D02*
X115740000Y-63240000D01*
X114790000Y-64490000D02*
X115490000Y-64490000D01*
X113445000Y-65835000D02*
X114790000Y-64490000D01*
X115490000Y-64490000D02*
X115740000Y-64240000D01*
X112515000Y-65835000D02*
X113445000Y-65835000D01*
%TO.N,+15V*%
X111740000Y-63240000D02*
X109865000Y-63240000D01*
X107265000Y-65835000D02*
X106435000Y-65835000D01*
X104140000Y-63540000D02*
X104140000Y-63500000D01*
X106435000Y-65835000D02*
X104140000Y-63540000D01*
X107265000Y-65835000D02*
X109345000Y-65835000D01*
X109865000Y-65315000D02*
X109865000Y-63240000D01*
X109345000Y-65835000D02*
X109865000Y-65315000D01*
%TO.N,Cmd_Haut*%
X107265000Y-67105000D02*
X105905000Y-67105000D01*
X104840000Y-66040000D02*
X104140000Y-66040000D01*
X105905000Y-67105000D02*
X104840000Y-66040000D01*
%TO.N,Cmd_Bas*%
X107265000Y-68375000D02*
X105805000Y-68375000D01*
X105600000Y-68580000D02*
X104140000Y-68580000D01*
X105805000Y-68375000D02*
X105600000Y-68580000D01*
%TO.N,Vpower*%
X106985000Y-73515000D02*
X106985000Y-71985000D01*
X106985000Y-71985000D02*
X106940000Y-71940000D01*
X106940000Y-71940000D02*
X106340000Y-71940000D01*
X104620000Y-73660000D02*
X104140000Y-73660000D01*
X106340000Y-71940000D02*
X104620000Y-73660000D01*
X110795000Y-72095000D02*
X110640000Y-71940000D01*
X110795000Y-73515000D02*
X110795000Y-72095000D01*
X109525000Y-71955000D02*
X109540000Y-71940000D01*
X109525000Y-73515000D02*
X109525000Y-71955000D01*
X109540000Y-71940000D02*
X110640000Y-71940000D01*
X108255000Y-72025000D02*
X108340000Y-71940000D01*
X108255000Y-73515000D02*
X108255000Y-72025000D01*
X108340000Y-71940000D02*
X109540000Y-71940000D01*
X106940000Y-71940000D02*
X108340000Y-71940000D01*
%TO.N,Net-(Q2-Pad4)*%
X118265000Y-69740000D02*
X118390000Y-69865000D01*
X117540000Y-69740000D02*
X118265000Y-69740000D01*
X116615000Y-68640000D02*
X117240000Y-68640000D01*
X117540000Y-68940000D02*
X117540000Y-69740000D01*
X117240000Y-68640000D02*
X117540000Y-68940000D01*
X114240000Y-69740000D02*
X117540000Y-69740000D01*
X112735000Y-71245000D02*
X114240000Y-69740000D01*
X112735000Y-73515000D02*
X112735000Y-71245000D01*
%TO.N,Net-(R1-Pad1)*%
X114990000Y-65940000D02*
X114540000Y-65940000D01*
X113375000Y-67105000D02*
X112515000Y-67105000D01*
X114540000Y-65940000D02*
X113375000Y-67105000D01*
%TO.N,Net-(R3-Pad1)*%
X114865000Y-68640000D02*
X114240000Y-68640000D01*
X113235000Y-69645000D02*
X112515000Y-69645000D01*
X114240000Y-68640000D02*
X113235000Y-69645000D01*
%TD*%
D16*
%TO.N,Vpower*%
X111263000Y-74613000D02*
X104517000Y-74613000D01*
X104517000Y-72867000D01*
X105140000Y-72867000D01*
X105164776Y-72864560D01*
X105188601Y-72857333D01*
X105210557Y-72845597D01*
X105229803Y-72829803D01*
X106442606Y-71617000D01*
X111263000Y-71617000D01*
X111263000Y-74613000D01*
%TA.AperFunction,Conductor*%
D17*
G36*
X111263000Y-74613000D02*
G01*
X104517000Y-74613000D01*
X104517000Y-72867000D01*
X105140000Y-72867000D01*
X105164776Y-72864560D01*
X105188601Y-72857333D01*
X105210557Y-72845597D01*
X105229803Y-72829803D01*
X106442606Y-71617000D01*
X111263000Y-71617000D01*
X111263000Y-74613000D01*
G37*
%TD.AperFunction*%
%TD*%
D16*
%TO.N,GND*%
X118763000Y-74613000D02*
X113621754Y-74613000D01*
X113657929Y-74493745D01*
X113673072Y-74340000D01*
X113673072Y-72690000D01*
X113657929Y-72536255D01*
X113613084Y-72388418D01*
X113570000Y-72307814D01*
X113570000Y-71590867D01*
X114043867Y-71117000D01*
X118763000Y-71117000D01*
X118763000Y-74613000D01*
%TA.AperFunction,Conductor*%
D17*
G36*
X118763000Y-74613000D02*
G01*
X113621754Y-74613000D01*
X113657929Y-74493745D01*
X113673072Y-74340000D01*
X113673072Y-72690000D01*
X113657929Y-72536255D01*
X113613084Y-72388418D01*
X113570000Y-72307814D01*
X113570000Y-71590867D01*
X114043867Y-71117000D01*
X118763000Y-71117000D01*
X118763000Y-74613000D01*
G37*
%TD.AperFunction*%
%TD*%
D16*
%TO.N,GND*%
X118813000Y-76113000D02*
X117567000Y-76113000D01*
X117567000Y-74867000D01*
X118813000Y-74867000D01*
X118813000Y-76113000D01*
%TA.AperFunction,Conductor*%
D17*
G36*
X118813000Y-76113000D02*
G01*
X117567000Y-76113000D01*
X117567000Y-74867000D01*
X118813000Y-74867000D01*
X118813000Y-76113000D01*
G37*
%TD.AperFunction*%
%TD*%
D16*
%TO.N,GND*%
X118813000Y-75303605D02*
X117596304Y-75216698D01*
X116974486Y-74594880D01*
X117450581Y-71167000D01*
X118813000Y-71167000D01*
X118813000Y-75303605D01*
%TA.AperFunction,Conductor*%
D17*
G36*
X118813000Y-75303605D02*
G01*
X117596304Y-75216698D01*
X116974486Y-74594880D01*
X117450581Y-71167000D01*
X118813000Y-71167000D01*
X118813000Y-75303605D01*
G37*
%TD.AperFunction*%
%TD*%
D16*
%TO.N,OUT*%
X108513000Y-77040000D02*
X108515440Y-77064776D01*
X108522667Y-77088601D01*
X108534403Y-77110557D01*
X108550197Y-77129803D01*
X108569443Y-77145597D01*
X108591399Y-77157333D01*
X108615224Y-77164560D01*
X108640000Y-77167000D01*
X110018606Y-77167000D01*
X109989742Y-77202171D01*
X109916916Y-77338418D01*
X109872071Y-77486255D01*
X109856928Y-77640000D01*
X109856928Y-79290000D01*
X109869043Y-79413000D01*
X105628072Y-79413000D01*
X105628072Y-77890000D01*
X105615812Y-77765518D01*
X105579502Y-77645820D01*
X105520537Y-77535506D01*
X105467000Y-77470271D01*
X105467000Y-77140000D01*
X105464560Y-77115224D01*
X105457333Y-77091399D01*
X105445597Y-77069443D01*
X105429803Y-77050197D01*
X105410557Y-77034403D01*
X105388601Y-77022667D01*
X105364776Y-77015440D01*
X105340000Y-77013000D01*
X104567000Y-77013000D01*
X104567000Y-75467000D01*
X108513000Y-75467000D01*
X108513000Y-77040000D01*
%TA.AperFunction,Conductor*%
D17*
G36*
X108513000Y-77040000D02*
G01*
X108515440Y-77064776D01*
X108522667Y-77088601D01*
X108534403Y-77110557D01*
X108550197Y-77129803D01*
X108569443Y-77145597D01*
X108591399Y-77157333D01*
X108615224Y-77164560D01*
X108640000Y-77167000D01*
X110018606Y-77167000D01*
X109989742Y-77202171D01*
X109916916Y-77338418D01*
X109872071Y-77486255D01*
X109856928Y-77640000D01*
X109856928Y-79290000D01*
X109869043Y-79413000D01*
X105628072Y-79413000D01*
X105628072Y-77890000D01*
X105615812Y-77765518D01*
X105579502Y-77645820D01*
X105520537Y-77535506D01*
X105467000Y-77470271D01*
X105467000Y-77140000D01*
X105464560Y-77115224D01*
X105457333Y-77091399D01*
X105445597Y-77069443D01*
X105429803Y-77050197D01*
X105410557Y-77034403D01*
X105388601Y-77022667D01*
X105364776Y-77015440D01*
X105340000Y-77013000D01*
X104567000Y-77013000D01*
X104567000Y-75467000D01*
X108513000Y-75467000D01*
X108513000Y-77040000D01*
G37*
%TD.AperFunction*%
D16*
X116813000Y-79413000D02*
X111720957Y-79413000D01*
X111733072Y-79290000D01*
X111733072Y-77640000D01*
X111717929Y-77486255D01*
X111673084Y-77338418D01*
X111600258Y-77202171D01*
X111571394Y-77167000D01*
X116813000Y-77167000D01*
X116813000Y-79413000D01*
%TA.AperFunction,Conductor*%
D17*
G36*
X116813000Y-79413000D02*
G01*
X111720957Y-79413000D01*
X111733072Y-79290000D01*
X111733072Y-77640000D01*
X111717929Y-77486255D01*
X111673084Y-77338418D01*
X111600258Y-77202171D01*
X111571394Y-77167000D01*
X116813000Y-77167000D01*
X116813000Y-79413000D01*
G37*
%TD.AperFunction*%
%TD*%
D16*
%TO.N,OUT*%
X114913000Y-77813000D02*
X111733072Y-77813000D01*
X111733072Y-77640000D01*
X111717929Y-77486255D01*
X111673084Y-77338418D01*
X111600258Y-77202171D01*
X111502251Y-77082749D01*
X111382829Y-76984742D01*
X111246582Y-76911916D01*
X111098745Y-76867071D01*
X110945000Y-76851928D01*
X110645000Y-76851928D01*
X110491255Y-76867071D01*
X110343418Y-76911916D01*
X110207171Y-76984742D01*
X110087749Y-77082749D01*
X109989742Y-77202171D01*
X109916916Y-77338418D01*
X109872071Y-77486255D01*
X109856928Y-77640000D01*
X109856928Y-77813000D01*
X108667000Y-77813000D01*
X108667000Y-75467000D01*
X114913000Y-75467000D01*
X114913000Y-77813000D01*
%TA.AperFunction,Conductor*%
D17*
G36*
X114913000Y-77813000D02*
G01*
X111733072Y-77813000D01*
X111733072Y-77640000D01*
X111717929Y-77486255D01*
X111673084Y-77338418D01*
X111600258Y-77202171D01*
X111502251Y-77082749D01*
X111382829Y-76984742D01*
X111246582Y-76911916D01*
X111098745Y-76867071D01*
X110945000Y-76851928D01*
X110645000Y-76851928D01*
X110491255Y-76867071D01*
X110343418Y-76911916D01*
X110207171Y-76984742D01*
X110087749Y-77082749D01*
X109989742Y-77202171D01*
X109916916Y-77338418D01*
X109872071Y-77486255D01*
X109856928Y-77640000D01*
X109856928Y-77813000D01*
X108667000Y-77813000D01*
X108667000Y-75467000D01*
X114913000Y-75467000D01*
X114913000Y-77813000D01*
G37*
%TD.AperFunction*%
%TD*%
D16*
%TO.N,OUT*%
X108813000Y-75513000D02*
X108367000Y-75513000D01*
X108367000Y-75467000D01*
X108813000Y-75467000D01*
X108813000Y-75513000D01*
%TA.AperFunction,Conductor*%
D17*
G36*
X108813000Y-75513000D02*
G01*
X108367000Y-75513000D01*
X108367000Y-75467000D01*
X108813000Y-75467000D01*
X108813000Y-75513000D01*
G37*
%TD.AperFunction*%
%TD*%
D16*
%TO.N,OUT*%
X116813000Y-76789872D02*
X116813000Y-77406809D01*
X114967000Y-77318904D01*
X114967000Y-75467000D01*
X115584619Y-75467000D01*
X116813000Y-76789872D01*
%TA.AperFunction,Conductor*%
D17*
G36*
X116813000Y-76789872D02*
G01*
X116813000Y-77406809D01*
X114967000Y-77318904D01*
X114967000Y-75467000D01*
X115584619Y-75467000D01*
X116813000Y-76789872D01*
G37*
%TD.AperFunction*%
%TD*%
M02*
