%TF.GenerationSoftware,KiCad,Pcbnew,(5.1.9)-1*%
%TF.CreationDate,2021-06-01T10:14:56+02:00*%
%TF.ProjectId,14_Demi_Pont_H_99,31345f44-656d-4695-9f50-6f6e745f485f,rev?*%
%TF.SameCoordinates,Original*%
%TF.FileFunction,Other,Fab,Top*%
%FSLAX46Y46*%
G04 Gerber Fmt 4.6, Leading zero omitted, Abs format (unit mm)*
G04 Created by KiCad (PCBNEW (5.1.9)-1) date 2021-06-01 10:14:56*
%MOMM*%
%LPD*%
G01*
G04 APERTURE LIST*
%TA.AperFunction,Profile*%
%ADD10C,0.050000*%
%TD*%
%ADD11C,0.120000*%
%ADD12C,0.100000*%
%ADD13C,0.150000*%
%ADD14C,0.060000*%
G04 APERTURE END LIST*
D10*
X115570000Y-60960000D02*
X120650000Y-60960000D01*
X115570000Y-81280000D02*
X120650000Y-81280000D01*
X101600000Y-62230000D02*
X101600000Y-60960000D01*
X100330000Y-62230000D02*
X101600000Y-62230000D01*
X100330000Y-67310000D02*
X100330000Y-62230000D01*
X100330000Y-72390000D02*
X100330000Y-67310000D01*
X120650000Y-60960000D02*
X120650000Y-81280000D01*
X101600000Y-60960000D02*
X115570000Y-60960000D01*
X101600000Y-80010000D02*
X101600000Y-81280000D01*
X100330000Y-80010000D02*
X101600000Y-80010000D01*
X115570000Y-81280000D02*
X101600000Y-81280000D01*
X100330000Y-80010000D02*
X100330000Y-72390000D01*
D11*
%TO.C,J5*%
X101600000Y-75565000D02*
X101600000Y-71755000D01*
D12*
X104775000Y-74930000D02*
X101600000Y-74930000D01*
X101600000Y-72390000D02*
X102870000Y-72390000D01*
X102870000Y-72390000D02*
X105410000Y-72390000D01*
X105410000Y-72390000D02*
X105410000Y-74295000D01*
X105410000Y-74295000D02*
X104775000Y-74930000D01*
D11*
%TO.C,J4*%
X101600000Y-65405000D02*
X101600000Y-61595000D01*
D12*
X104775000Y-64770000D02*
X101600000Y-64770000D01*
X101600000Y-62230000D02*
X102870000Y-62230000D01*
X102870000Y-62230000D02*
X105410000Y-62230000D01*
X105410000Y-62230000D02*
X105410000Y-64135000D01*
X105410000Y-64135000D02*
X104775000Y-64770000D01*
D11*
%TO.C,J6*%
X101600000Y-78105000D02*
X101600000Y-74295000D01*
D12*
X104775000Y-77470000D02*
X101600000Y-77470000D01*
X101600000Y-74930000D02*
X102870000Y-74930000D01*
X102870000Y-74930000D02*
X105410000Y-74930000D01*
X105410000Y-74930000D02*
X105410000Y-76835000D01*
X105410000Y-76835000D02*
X104775000Y-77470000D01*
%TO.C,R4*%
X117990000Y-69940000D02*
X118790000Y-69940000D01*
X118790000Y-69940000D02*
X118790000Y-71540000D01*
X118790000Y-71540000D02*
X117990000Y-71540000D01*
X117990000Y-71540000D02*
X117990000Y-69940000D01*
%TO.C,R3*%
X114940000Y-69040000D02*
X114940000Y-68240000D01*
X114940000Y-68240000D02*
X116540000Y-68240000D01*
X116540000Y-68240000D02*
X116540000Y-69040000D01*
X116540000Y-69040000D02*
X114940000Y-69040000D01*
D11*
%TO.C,J3*%
X101600000Y-73025000D02*
X101600000Y-69215000D01*
D12*
X104775000Y-72390000D02*
X101600000Y-72390000D01*
X101600000Y-69850000D02*
X102870000Y-69850000D01*
X102870000Y-69850000D02*
X105410000Y-69850000D01*
X105410000Y-69850000D02*
X105410000Y-71755000D01*
X105410000Y-71755000D02*
X104775000Y-72390000D01*
D11*
%TO.C,J1*%
X101600000Y-67945000D02*
X101600000Y-64135000D01*
D12*
X104775000Y-67310000D02*
X101600000Y-67310000D01*
X101600000Y-64770000D02*
X102870000Y-64770000D01*
X102870000Y-64770000D02*
X105410000Y-64770000D01*
X105410000Y-64770000D02*
X105410000Y-66675000D01*
X105410000Y-66675000D02*
X104775000Y-67310000D01*
%TO.C,Q2*%
X117090000Y-75015000D02*
X117090000Y-77940000D01*
X117090000Y-77940000D02*
X112190000Y-77940000D01*
X112190000Y-77940000D02*
X112190000Y-74040000D01*
X112190000Y-74040000D02*
X116115000Y-74040000D01*
X116115000Y-74040000D02*
X117090000Y-75015000D01*
%TO.C,C1*%
X118190000Y-62840000D02*
X118190000Y-63640000D01*
X118190000Y-63640000D02*
X116590000Y-63640000D01*
X116590000Y-63640000D02*
X116590000Y-62840000D01*
X116590000Y-62840000D02*
X118190000Y-62840000D01*
%TO.C,C2*%
X109990000Y-61990000D02*
X109990000Y-64490000D01*
X109990000Y-64490000D02*
X106790000Y-64490000D01*
X106790000Y-64490000D02*
X106790000Y-61990000D01*
X106790000Y-61990000D02*
X109990000Y-61990000D01*
%TO.C,D1*%
X113140000Y-63240000D02*
X112640000Y-63240000D01*
X113140000Y-62840000D02*
X113740000Y-63240000D01*
X113140000Y-63640000D02*
X113140000Y-62840000D01*
X113740000Y-63240000D02*
X113140000Y-63640000D01*
X113740000Y-63240000D02*
X113740000Y-62690000D01*
X113740000Y-63240000D02*
X113740000Y-63790000D01*
X114140000Y-63240000D02*
X113740000Y-63240000D01*
X114790000Y-62340000D02*
X114790000Y-64140000D01*
X111990000Y-62340000D02*
X114790000Y-62340000D01*
X111990000Y-64140000D02*
X111990000Y-62340000D01*
X114790000Y-64140000D02*
X111990000Y-64140000D01*
D11*
%TO.C,J2*%
X101600000Y-70485000D02*
X101600000Y-66675000D01*
D12*
X104775000Y-69850000D02*
X101600000Y-69850000D01*
X101600000Y-67310000D02*
X102870000Y-67310000D01*
X102870000Y-67310000D02*
X105410000Y-67310000D01*
X105410000Y-67310000D02*
X105410000Y-69215000D01*
X105410000Y-69215000D02*
X104775000Y-69850000D01*
D11*
%TO.C,J7*%
X101600000Y-80645000D02*
X101600000Y-76835000D01*
D12*
X104775000Y-80010000D02*
X101600000Y-80010000D01*
X101600000Y-77470000D02*
X102870000Y-77470000D01*
X102870000Y-77470000D02*
X105410000Y-77470000D01*
X105410000Y-77470000D02*
X105410000Y-79375000D01*
X105410000Y-79375000D02*
X104775000Y-80010000D01*
%TO.C,Q1*%
X106440000Y-76965000D02*
X106440000Y-74040000D01*
X106440000Y-74040000D02*
X111340000Y-74040000D01*
X111340000Y-74040000D02*
X111340000Y-77940000D01*
X111340000Y-77940000D02*
X107415000Y-77940000D01*
X107415000Y-77940000D02*
X106440000Y-76965000D01*
%TO.C,R1*%
X115065000Y-66340000D02*
X115065000Y-65540000D01*
X115065000Y-65540000D02*
X116665000Y-65540000D01*
X116665000Y-65540000D02*
X116665000Y-66340000D01*
X116665000Y-66340000D02*
X115065000Y-66340000D01*
%TO.C,R2*%
X118790000Y-66790000D02*
X117990000Y-66790000D01*
X117990000Y-66790000D02*
X117990000Y-65190000D01*
X117990000Y-65190000D02*
X118790000Y-65190000D01*
X118790000Y-65190000D02*
X118790000Y-66790000D01*
%TO.C,U1*%
X108915000Y-65290000D02*
X111840000Y-65290000D01*
X111840000Y-65290000D02*
X111840000Y-70190000D01*
X111840000Y-70190000D02*
X107940000Y-70190000D01*
X107940000Y-70190000D02*
X107940000Y-66265000D01*
X107940000Y-66265000D02*
X108915000Y-65290000D01*
%TD*%
%TO.C,J5*%
D13*
X91511904Y-74017142D02*
X91464285Y-74064761D01*
X91321428Y-74112380D01*
X91226190Y-74112380D01*
X91083333Y-74064761D01*
X90988095Y-73969523D01*
X90940476Y-73874285D01*
X90892857Y-73683809D01*
X90892857Y-73540952D01*
X90940476Y-73350476D01*
X90988095Y-73255238D01*
X91083333Y-73160000D01*
X91226190Y-73112380D01*
X91321428Y-73112380D01*
X91464285Y-73160000D01*
X91511904Y-73207619D01*
X92083333Y-74112380D02*
X91988095Y-74064761D01*
X91940476Y-74017142D01*
X91892857Y-73921904D01*
X91892857Y-73636190D01*
X91940476Y-73540952D01*
X91988095Y-73493333D01*
X92083333Y-73445714D01*
X92226190Y-73445714D01*
X92321428Y-73493333D01*
X92369047Y-73540952D01*
X92416666Y-73636190D01*
X92416666Y-73921904D01*
X92369047Y-74017142D01*
X92321428Y-74064761D01*
X92226190Y-74112380D01*
X92083333Y-74112380D01*
X92845238Y-73445714D02*
X92845238Y-74112380D01*
X92845238Y-73540952D02*
X92892857Y-73493333D01*
X92988095Y-73445714D01*
X93130952Y-73445714D01*
X93226190Y-73493333D01*
X93273809Y-73588571D01*
X93273809Y-74112380D01*
X93750000Y-73445714D02*
X93750000Y-74112380D01*
X93750000Y-73540952D02*
X93797619Y-73493333D01*
X93892857Y-73445714D01*
X94035714Y-73445714D01*
X94130952Y-73493333D01*
X94178571Y-73588571D01*
X94178571Y-74112380D01*
X94416666Y-74207619D02*
X95178571Y-74207619D01*
X95607142Y-73112380D02*
X95702380Y-73112380D01*
X95797619Y-73160000D01*
X95845238Y-73207619D01*
X95892857Y-73302857D01*
X95940476Y-73493333D01*
X95940476Y-73731428D01*
X95892857Y-73921904D01*
X95845238Y-74017142D01*
X95797619Y-74064761D01*
X95702380Y-74112380D01*
X95607142Y-74112380D01*
X95511904Y-74064761D01*
X95464285Y-74017142D01*
X95416666Y-73921904D01*
X95369047Y-73731428D01*
X95369047Y-73493333D01*
X95416666Y-73302857D01*
X95464285Y-73207619D01*
X95511904Y-73160000D01*
X95607142Y-73112380D01*
X96892857Y-74112380D02*
X96321428Y-74112380D01*
X96607142Y-74112380D02*
X96607142Y-73112380D01*
X96511904Y-73255238D01*
X96416666Y-73350476D01*
X96321428Y-73398095D01*
X97226190Y-74112380D02*
X97750000Y-73445714D01*
X97226190Y-73445714D02*
X97750000Y-74112380D01*
X98321428Y-73112380D02*
X98416666Y-73112380D01*
X98511904Y-73160000D01*
X98559523Y-73207619D01*
X98607142Y-73302857D01*
X98654761Y-73493333D01*
X98654761Y-73731428D01*
X98607142Y-73921904D01*
X98559523Y-74017142D01*
X98511904Y-74064761D01*
X98416666Y-74112380D01*
X98321428Y-74112380D01*
X98226190Y-74064761D01*
X98178571Y-74017142D01*
X98130952Y-73921904D01*
X98083333Y-73731428D01*
X98083333Y-73493333D01*
X98130952Y-73302857D01*
X98178571Y-73207619D01*
X98226190Y-73160000D01*
X98321428Y-73112380D01*
X99607142Y-74112380D02*
X99035714Y-74112380D01*
X99321428Y-74112380D02*
X99321428Y-73112380D01*
X99226190Y-73255238D01*
X99130952Y-73350476D01*
X99035714Y-73398095D01*
X103806666Y-73112380D02*
X103806666Y-73826666D01*
X103759047Y-73969523D01*
X103663809Y-74064761D01*
X103520952Y-74112380D01*
X103425714Y-74112380D01*
X104759047Y-73112380D02*
X104282857Y-73112380D01*
X104235238Y-73588571D01*
X104282857Y-73540952D01*
X104378095Y-73493333D01*
X104616190Y-73493333D01*
X104711428Y-73540952D01*
X104759047Y-73588571D01*
X104806666Y-73683809D01*
X104806666Y-73921904D01*
X104759047Y-74017142D01*
X104711428Y-74064761D01*
X104616190Y-74112380D01*
X104378095Y-74112380D01*
X104282857Y-74064761D01*
X104235238Y-74017142D01*
%TO.C,J4*%
X91511904Y-63857142D02*
X91464285Y-63904761D01*
X91321428Y-63952380D01*
X91226190Y-63952380D01*
X91083333Y-63904761D01*
X90988095Y-63809523D01*
X90940476Y-63714285D01*
X90892857Y-63523809D01*
X90892857Y-63380952D01*
X90940476Y-63190476D01*
X90988095Y-63095238D01*
X91083333Y-63000000D01*
X91226190Y-62952380D01*
X91321428Y-62952380D01*
X91464285Y-63000000D01*
X91511904Y-63047619D01*
X92083333Y-63952380D02*
X91988095Y-63904761D01*
X91940476Y-63857142D01*
X91892857Y-63761904D01*
X91892857Y-63476190D01*
X91940476Y-63380952D01*
X91988095Y-63333333D01*
X92083333Y-63285714D01*
X92226190Y-63285714D01*
X92321428Y-63333333D01*
X92369047Y-63380952D01*
X92416666Y-63476190D01*
X92416666Y-63761904D01*
X92369047Y-63857142D01*
X92321428Y-63904761D01*
X92226190Y-63952380D01*
X92083333Y-63952380D01*
X92845238Y-63285714D02*
X92845238Y-63952380D01*
X92845238Y-63380952D02*
X92892857Y-63333333D01*
X92988095Y-63285714D01*
X93130952Y-63285714D01*
X93226190Y-63333333D01*
X93273809Y-63428571D01*
X93273809Y-63952380D01*
X93750000Y-63285714D02*
X93750000Y-63952380D01*
X93750000Y-63380952D02*
X93797619Y-63333333D01*
X93892857Y-63285714D01*
X94035714Y-63285714D01*
X94130952Y-63333333D01*
X94178571Y-63428571D01*
X94178571Y-63952380D01*
X94416666Y-64047619D02*
X95178571Y-64047619D01*
X95607142Y-62952380D02*
X95702380Y-62952380D01*
X95797619Y-63000000D01*
X95845238Y-63047619D01*
X95892857Y-63142857D01*
X95940476Y-63333333D01*
X95940476Y-63571428D01*
X95892857Y-63761904D01*
X95845238Y-63857142D01*
X95797619Y-63904761D01*
X95702380Y-63952380D01*
X95607142Y-63952380D01*
X95511904Y-63904761D01*
X95464285Y-63857142D01*
X95416666Y-63761904D01*
X95369047Y-63571428D01*
X95369047Y-63333333D01*
X95416666Y-63142857D01*
X95464285Y-63047619D01*
X95511904Y-63000000D01*
X95607142Y-62952380D01*
X96892857Y-63952380D02*
X96321428Y-63952380D01*
X96607142Y-63952380D02*
X96607142Y-62952380D01*
X96511904Y-63095238D01*
X96416666Y-63190476D01*
X96321428Y-63238095D01*
X97226190Y-63952380D02*
X97750000Y-63285714D01*
X97226190Y-63285714D02*
X97750000Y-63952380D01*
X98321428Y-62952380D02*
X98416666Y-62952380D01*
X98511904Y-63000000D01*
X98559523Y-63047619D01*
X98607142Y-63142857D01*
X98654761Y-63333333D01*
X98654761Y-63571428D01*
X98607142Y-63761904D01*
X98559523Y-63857142D01*
X98511904Y-63904761D01*
X98416666Y-63952380D01*
X98321428Y-63952380D01*
X98226190Y-63904761D01*
X98178571Y-63857142D01*
X98130952Y-63761904D01*
X98083333Y-63571428D01*
X98083333Y-63333333D01*
X98130952Y-63142857D01*
X98178571Y-63047619D01*
X98226190Y-63000000D01*
X98321428Y-62952380D01*
X99607142Y-63952380D02*
X99035714Y-63952380D01*
X99321428Y-63952380D02*
X99321428Y-62952380D01*
X99226190Y-63095238D01*
X99130952Y-63190476D01*
X99035714Y-63238095D01*
X103806666Y-62952380D02*
X103806666Y-63666666D01*
X103759047Y-63809523D01*
X103663809Y-63904761D01*
X103520952Y-63952380D01*
X103425714Y-63952380D01*
X104711428Y-63285714D02*
X104711428Y-63952380D01*
X104473333Y-62904761D02*
X104235238Y-63619047D01*
X104854285Y-63619047D01*
%TO.C,J6*%
X91511904Y-76557142D02*
X91464285Y-76604761D01*
X91321428Y-76652380D01*
X91226190Y-76652380D01*
X91083333Y-76604761D01*
X90988095Y-76509523D01*
X90940476Y-76414285D01*
X90892857Y-76223809D01*
X90892857Y-76080952D01*
X90940476Y-75890476D01*
X90988095Y-75795238D01*
X91083333Y-75700000D01*
X91226190Y-75652380D01*
X91321428Y-75652380D01*
X91464285Y-75700000D01*
X91511904Y-75747619D01*
X92083333Y-76652380D02*
X91988095Y-76604761D01*
X91940476Y-76557142D01*
X91892857Y-76461904D01*
X91892857Y-76176190D01*
X91940476Y-76080952D01*
X91988095Y-76033333D01*
X92083333Y-75985714D01*
X92226190Y-75985714D01*
X92321428Y-76033333D01*
X92369047Y-76080952D01*
X92416666Y-76176190D01*
X92416666Y-76461904D01*
X92369047Y-76557142D01*
X92321428Y-76604761D01*
X92226190Y-76652380D01*
X92083333Y-76652380D01*
X92845238Y-75985714D02*
X92845238Y-76652380D01*
X92845238Y-76080952D02*
X92892857Y-76033333D01*
X92988095Y-75985714D01*
X93130952Y-75985714D01*
X93226190Y-76033333D01*
X93273809Y-76128571D01*
X93273809Y-76652380D01*
X93750000Y-75985714D02*
X93750000Y-76652380D01*
X93750000Y-76080952D02*
X93797619Y-76033333D01*
X93892857Y-75985714D01*
X94035714Y-75985714D01*
X94130952Y-76033333D01*
X94178571Y-76128571D01*
X94178571Y-76652380D01*
X94416666Y-76747619D02*
X95178571Y-76747619D01*
X95607142Y-75652380D02*
X95702380Y-75652380D01*
X95797619Y-75700000D01*
X95845238Y-75747619D01*
X95892857Y-75842857D01*
X95940476Y-76033333D01*
X95940476Y-76271428D01*
X95892857Y-76461904D01*
X95845238Y-76557142D01*
X95797619Y-76604761D01*
X95702380Y-76652380D01*
X95607142Y-76652380D01*
X95511904Y-76604761D01*
X95464285Y-76557142D01*
X95416666Y-76461904D01*
X95369047Y-76271428D01*
X95369047Y-76033333D01*
X95416666Y-75842857D01*
X95464285Y-75747619D01*
X95511904Y-75700000D01*
X95607142Y-75652380D01*
X96892857Y-76652380D02*
X96321428Y-76652380D01*
X96607142Y-76652380D02*
X96607142Y-75652380D01*
X96511904Y-75795238D01*
X96416666Y-75890476D01*
X96321428Y-75938095D01*
X97226190Y-76652380D02*
X97750000Y-75985714D01*
X97226190Y-75985714D02*
X97750000Y-76652380D01*
X98321428Y-75652380D02*
X98416666Y-75652380D01*
X98511904Y-75700000D01*
X98559523Y-75747619D01*
X98607142Y-75842857D01*
X98654761Y-76033333D01*
X98654761Y-76271428D01*
X98607142Y-76461904D01*
X98559523Y-76557142D01*
X98511904Y-76604761D01*
X98416666Y-76652380D01*
X98321428Y-76652380D01*
X98226190Y-76604761D01*
X98178571Y-76557142D01*
X98130952Y-76461904D01*
X98083333Y-76271428D01*
X98083333Y-76033333D01*
X98130952Y-75842857D01*
X98178571Y-75747619D01*
X98226190Y-75700000D01*
X98321428Y-75652380D01*
X99607142Y-76652380D02*
X99035714Y-76652380D01*
X99321428Y-76652380D02*
X99321428Y-75652380D01*
X99226190Y-75795238D01*
X99130952Y-75890476D01*
X99035714Y-75938095D01*
X103806666Y-75652380D02*
X103806666Y-76366666D01*
X103759047Y-76509523D01*
X103663809Y-76604761D01*
X103520952Y-76652380D01*
X103425714Y-76652380D01*
X104711428Y-75652380D02*
X104520952Y-75652380D01*
X104425714Y-75700000D01*
X104378095Y-75747619D01*
X104282857Y-75890476D01*
X104235238Y-76080952D01*
X104235238Y-76461904D01*
X104282857Y-76557142D01*
X104330476Y-76604761D01*
X104425714Y-76652380D01*
X104616190Y-76652380D01*
X104711428Y-76604761D01*
X104759047Y-76557142D01*
X104806666Y-76461904D01*
X104806666Y-76223809D01*
X104759047Y-76128571D01*
X104711428Y-76080952D01*
X104616190Y-76033333D01*
X104425714Y-76033333D01*
X104330476Y-76080952D01*
X104282857Y-76128571D01*
X104235238Y-76223809D01*
%TO.C,R4*%
X117412380Y-71811428D02*
X117412380Y-72382857D01*
X117412380Y-72097142D02*
X116412380Y-72097142D01*
X116555238Y-72192380D01*
X116650476Y-72287619D01*
X116698095Y-72382857D01*
X116412380Y-71192380D02*
X116412380Y-71097142D01*
X116460000Y-71001904D01*
X116507619Y-70954285D01*
X116602857Y-70906666D01*
X116793333Y-70859047D01*
X117031428Y-70859047D01*
X117221904Y-70906666D01*
X117317142Y-70954285D01*
X117364761Y-71001904D01*
X117412380Y-71097142D01*
X117412380Y-71192380D01*
X117364761Y-71287619D01*
X117317142Y-71335238D01*
X117221904Y-71382857D01*
X117031428Y-71430476D01*
X116793333Y-71430476D01*
X116602857Y-71382857D01*
X116507619Y-71335238D01*
X116460000Y-71287619D01*
X116412380Y-71192380D01*
X116412380Y-70240000D02*
X116412380Y-70144761D01*
X116460000Y-70049523D01*
X116507619Y-70001904D01*
X116602857Y-69954285D01*
X116793333Y-69906666D01*
X117031428Y-69906666D01*
X117221904Y-69954285D01*
X117317142Y-70001904D01*
X117364761Y-70049523D01*
X117412380Y-70144761D01*
X117412380Y-70240000D01*
X117364761Y-70335238D01*
X117317142Y-70382857D01*
X117221904Y-70430476D01*
X117031428Y-70478095D01*
X116793333Y-70478095D01*
X116602857Y-70430476D01*
X116507619Y-70382857D01*
X116460000Y-70335238D01*
X116412380Y-70240000D01*
X117412380Y-69478095D02*
X116412380Y-69478095D01*
X117031428Y-69382857D02*
X117412380Y-69097142D01*
X116745714Y-69097142D02*
X117126666Y-69478095D01*
D14*
X118570952Y-70806666D02*
X118380476Y-70940000D01*
X118570952Y-71035238D02*
X118170952Y-71035238D01*
X118170952Y-70882857D01*
X118190000Y-70844761D01*
X118209047Y-70825714D01*
X118247142Y-70806666D01*
X118304285Y-70806666D01*
X118342380Y-70825714D01*
X118361428Y-70844761D01*
X118380476Y-70882857D01*
X118380476Y-71035238D01*
X118304285Y-70463809D02*
X118570952Y-70463809D01*
X118151904Y-70559047D02*
X118437619Y-70654285D01*
X118437619Y-70406666D01*
%TO.C,R3*%
D13*
X115454285Y-69855714D02*
X115454285Y-70522380D01*
X115216190Y-69474761D02*
X114978095Y-70189047D01*
X115597142Y-70189047D01*
X115882857Y-69522380D02*
X116549523Y-69522380D01*
X116120952Y-70522380D01*
D14*
X115673333Y-68820952D02*
X115540000Y-68630476D01*
X115444761Y-68820952D02*
X115444761Y-68420952D01*
X115597142Y-68420952D01*
X115635238Y-68440000D01*
X115654285Y-68459047D01*
X115673333Y-68497142D01*
X115673333Y-68554285D01*
X115654285Y-68592380D01*
X115635238Y-68611428D01*
X115597142Y-68630476D01*
X115444761Y-68630476D01*
X115806666Y-68420952D02*
X116054285Y-68420952D01*
X115920952Y-68573333D01*
X115978095Y-68573333D01*
X116016190Y-68592380D01*
X116035238Y-68611428D01*
X116054285Y-68649523D01*
X116054285Y-68744761D01*
X116035238Y-68782857D01*
X116016190Y-68801904D01*
X115978095Y-68820952D01*
X115863809Y-68820952D01*
X115825714Y-68801904D01*
X115806666Y-68782857D01*
%TO.C,J3*%
D13*
X91511904Y-71477142D02*
X91464285Y-71524761D01*
X91321428Y-71572380D01*
X91226190Y-71572380D01*
X91083333Y-71524761D01*
X90988095Y-71429523D01*
X90940476Y-71334285D01*
X90892857Y-71143809D01*
X90892857Y-71000952D01*
X90940476Y-70810476D01*
X90988095Y-70715238D01*
X91083333Y-70620000D01*
X91226190Y-70572380D01*
X91321428Y-70572380D01*
X91464285Y-70620000D01*
X91511904Y-70667619D01*
X92083333Y-71572380D02*
X91988095Y-71524761D01*
X91940476Y-71477142D01*
X91892857Y-71381904D01*
X91892857Y-71096190D01*
X91940476Y-71000952D01*
X91988095Y-70953333D01*
X92083333Y-70905714D01*
X92226190Y-70905714D01*
X92321428Y-70953333D01*
X92369047Y-71000952D01*
X92416666Y-71096190D01*
X92416666Y-71381904D01*
X92369047Y-71477142D01*
X92321428Y-71524761D01*
X92226190Y-71572380D01*
X92083333Y-71572380D01*
X92845238Y-70905714D02*
X92845238Y-71572380D01*
X92845238Y-71000952D02*
X92892857Y-70953333D01*
X92988095Y-70905714D01*
X93130952Y-70905714D01*
X93226190Y-70953333D01*
X93273809Y-71048571D01*
X93273809Y-71572380D01*
X93750000Y-70905714D02*
X93750000Y-71572380D01*
X93750000Y-71000952D02*
X93797619Y-70953333D01*
X93892857Y-70905714D01*
X94035714Y-70905714D01*
X94130952Y-70953333D01*
X94178571Y-71048571D01*
X94178571Y-71572380D01*
X94416666Y-71667619D02*
X95178571Y-71667619D01*
X95607142Y-70572380D02*
X95702380Y-70572380D01*
X95797619Y-70620000D01*
X95845238Y-70667619D01*
X95892857Y-70762857D01*
X95940476Y-70953333D01*
X95940476Y-71191428D01*
X95892857Y-71381904D01*
X95845238Y-71477142D01*
X95797619Y-71524761D01*
X95702380Y-71572380D01*
X95607142Y-71572380D01*
X95511904Y-71524761D01*
X95464285Y-71477142D01*
X95416666Y-71381904D01*
X95369047Y-71191428D01*
X95369047Y-70953333D01*
X95416666Y-70762857D01*
X95464285Y-70667619D01*
X95511904Y-70620000D01*
X95607142Y-70572380D01*
X96892857Y-71572380D02*
X96321428Y-71572380D01*
X96607142Y-71572380D02*
X96607142Y-70572380D01*
X96511904Y-70715238D01*
X96416666Y-70810476D01*
X96321428Y-70858095D01*
X97226190Y-71572380D02*
X97750000Y-70905714D01*
X97226190Y-70905714D02*
X97750000Y-71572380D01*
X98321428Y-70572380D02*
X98416666Y-70572380D01*
X98511904Y-70620000D01*
X98559523Y-70667619D01*
X98607142Y-70762857D01*
X98654761Y-70953333D01*
X98654761Y-71191428D01*
X98607142Y-71381904D01*
X98559523Y-71477142D01*
X98511904Y-71524761D01*
X98416666Y-71572380D01*
X98321428Y-71572380D01*
X98226190Y-71524761D01*
X98178571Y-71477142D01*
X98130952Y-71381904D01*
X98083333Y-71191428D01*
X98083333Y-70953333D01*
X98130952Y-70762857D01*
X98178571Y-70667619D01*
X98226190Y-70620000D01*
X98321428Y-70572380D01*
X99607142Y-71572380D02*
X99035714Y-71572380D01*
X99321428Y-71572380D02*
X99321428Y-70572380D01*
X99226190Y-70715238D01*
X99130952Y-70810476D01*
X99035714Y-70858095D01*
X103806666Y-70572380D02*
X103806666Y-71286666D01*
X103759047Y-71429523D01*
X103663809Y-71524761D01*
X103520952Y-71572380D01*
X103425714Y-71572380D01*
X104187619Y-70572380D02*
X104806666Y-70572380D01*
X104473333Y-70953333D01*
X104616190Y-70953333D01*
X104711428Y-71000952D01*
X104759047Y-71048571D01*
X104806666Y-71143809D01*
X104806666Y-71381904D01*
X104759047Y-71477142D01*
X104711428Y-71524761D01*
X104616190Y-71572380D01*
X104330476Y-71572380D01*
X104235238Y-71524761D01*
X104187619Y-71477142D01*
%TO.C,J1*%
X91511904Y-66397142D02*
X91464285Y-66444761D01*
X91321428Y-66492380D01*
X91226190Y-66492380D01*
X91083333Y-66444761D01*
X90988095Y-66349523D01*
X90940476Y-66254285D01*
X90892857Y-66063809D01*
X90892857Y-65920952D01*
X90940476Y-65730476D01*
X90988095Y-65635238D01*
X91083333Y-65540000D01*
X91226190Y-65492380D01*
X91321428Y-65492380D01*
X91464285Y-65540000D01*
X91511904Y-65587619D01*
X92083333Y-66492380D02*
X91988095Y-66444761D01*
X91940476Y-66397142D01*
X91892857Y-66301904D01*
X91892857Y-66016190D01*
X91940476Y-65920952D01*
X91988095Y-65873333D01*
X92083333Y-65825714D01*
X92226190Y-65825714D01*
X92321428Y-65873333D01*
X92369047Y-65920952D01*
X92416666Y-66016190D01*
X92416666Y-66301904D01*
X92369047Y-66397142D01*
X92321428Y-66444761D01*
X92226190Y-66492380D01*
X92083333Y-66492380D01*
X92845238Y-65825714D02*
X92845238Y-66492380D01*
X92845238Y-65920952D02*
X92892857Y-65873333D01*
X92988095Y-65825714D01*
X93130952Y-65825714D01*
X93226190Y-65873333D01*
X93273809Y-65968571D01*
X93273809Y-66492380D01*
X93750000Y-65825714D02*
X93750000Y-66492380D01*
X93750000Y-65920952D02*
X93797619Y-65873333D01*
X93892857Y-65825714D01*
X94035714Y-65825714D01*
X94130952Y-65873333D01*
X94178571Y-65968571D01*
X94178571Y-66492380D01*
X94416666Y-66587619D02*
X95178571Y-66587619D01*
X95607142Y-65492380D02*
X95702380Y-65492380D01*
X95797619Y-65540000D01*
X95845238Y-65587619D01*
X95892857Y-65682857D01*
X95940476Y-65873333D01*
X95940476Y-66111428D01*
X95892857Y-66301904D01*
X95845238Y-66397142D01*
X95797619Y-66444761D01*
X95702380Y-66492380D01*
X95607142Y-66492380D01*
X95511904Y-66444761D01*
X95464285Y-66397142D01*
X95416666Y-66301904D01*
X95369047Y-66111428D01*
X95369047Y-65873333D01*
X95416666Y-65682857D01*
X95464285Y-65587619D01*
X95511904Y-65540000D01*
X95607142Y-65492380D01*
X96892857Y-66492380D02*
X96321428Y-66492380D01*
X96607142Y-66492380D02*
X96607142Y-65492380D01*
X96511904Y-65635238D01*
X96416666Y-65730476D01*
X96321428Y-65778095D01*
X97226190Y-66492380D02*
X97750000Y-65825714D01*
X97226190Y-65825714D02*
X97750000Y-66492380D01*
X98321428Y-65492380D02*
X98416666Y-65492380D01*
X98511904Y-65540000D01*
X98559523Y-65587619D01*
X98607142Y-65682857D01*
X98654761Y-65873333D01*
X98654761Y-66111428D01*
X98607142Y-66301904D01*
X98559523Y-66397142D01*
X98511904Y-66444761D01*
X98416666Y-66492380D01*
X98321428Y-66492380D01*
X98226190Y-66444761D01*
X98178571Y-66397142D01*
X98130952Y-66301904D01*
X98083333Y-66111428D01*
X98083333Y-65873333D01*
X98130952Y-65682857D01*
X98178571Y-65587619D01*
X98226190Y-65540000D01*
X98321428Y-65492380D01*
X99607142Y-66492380D02*
X99035714Y-66492380D01*
X99321428Y-66492380D02*
X99321428Y-65492380D01*
X99226190Y-65635238D01*
X99130952Y-65730476D01*
X99035714Y-65778095D01*
X103806666Y-65492380D02*
X103806666Y-66206666D01*
X103759047Y-66349523D01*
X103663809Y-66444761D01*
X103520952Y-66492380D01*
X103425714Y-66492380D01*
X104806666Y-66492380D02*
X104235238Y-66492380D01*
X104520952Y-66492380D02*
X104520952Y-65492380D01*
X104425714Y-65635238D01*
X104330476Y-65730476D01*
X104235238Y-65778095D01*
%TO.C,Q2*%
X111168571Y-78728095D02*
X111168571Y-79061428D01*
X111692380Y-79061428D02*
X110692380Y-79061428D01*
X110692380Y-78585238D01*
X111692380Y-78204285D02*
X110692380Y-78204285D01*
X110692380Y-77966190D01*
X110740000Y-77823333D01*
X110835238Y-77728095D01*
X110930476Y-77680476D01*
X111120952Y-77632857D01*
X111263809Y-77632857D01*
X111454285Y-77680476D01*
X111549523Y-77728095D01*
X111644761Y-77823333D01*
X111692380Y-77966190D01*
X111692380Y-78204285D01*
X111644761Y-77251904D02*
X111692380Y-77109047D01*
X111692380Y-76870952D01*
X111644761Y-76775714D01*
X111597142Y-76728095D01*
X111501904Y-76680476D01*
X111406666Y-76680476D01*
X111311428Y-76728095D01*
X111263809Y-76775714D01*
X111216190Y-76870952D01*
X111168571Y-77061428D01*
X111120952Y-77156666D01*
X111073333Y-77204285D01*
X110978095Y-77251904D01*
X110882857Y-77251904D01*
X110787619Y-77204285D01*
X110740000Y-77156666D01*
X110692380Y-77061428D01*
X110692380Y-76823333D01*
X110740000Y-76680476D01*
X111120952Y-76109047D02*
X111073333Y-76204285D01*
X111025714Y-76251904D01*
X110930476Y-76299523D01*
X110882857Y-76299523D01*
X110787619Y-76251904D01*
X110740000Y-76204285D01*
X110692380Y-76109047D01*
X110692380Y-75918571D01*
X110740000Y-75823333D01*
X110787619Y-75775714D01*
X110882857Y-75728095D01*
X110930476Y-75728095D01*
X111025714Y-75775714D01*
X111073333Y-75823333D01*
X111120952Y-75918571D01*
X111120952Y-76109047D01*
X111168571Y-76204285D01*
X111216190Y-76251904D01*
X111311428Y-76299523D01*
X111501904Y-76299523D01*
X111597142Y-76251904D01*
X111644761Y-76204285D01*
X111692380Y-76109047D01*
X111692380Y-75918571D01*
X111644761Y-75823333D01*
X111597142Y-75775714D01*
X111501904Y-75728095D01*
X111311428Y-75728095D01*
X111216190Y-75775714D01*
X111168571Y-75823333D01*
X111120952Y-75918571D01*
X111120952Y-75156666D02*
X111073333Y-75251904D01*
X111025714Y-75299523D01*
X110930476Y-75347142D01*
X110882857Y-75347142D01*
X110787619Y-75299523D01*
X110740000Y-75251904D01*
X110692380Y-75156666D01*
X110692380Y-74966190D01*
X110740000Y-74870952D01*
X110787619Y-74823333D01*
X110882857Y-74775714D01*
X110930476Y-74775714D01*
X111025714Y-74823333D01*
X111073333Y-74870952D01*
X111120952Y-74966190D01*
X111120952Y-75156666D01*
X111168571Y-75251904D01*
X111216190Y-75299523D01*
X111311428Y-75347142D01*
X111501904Y-75347142D01*
X111597142Y-75299523D01*
X111644761Y-75251904D01*
X111692380Y-75156666D01*
X111692380Y-74966190D01*
X111644761Y-74870952D01*
X111597142Y-74823333D01*
X111501904Y-74775714D01*
X111311428Y-74775714D01*
X111216190Y-74823333D01*
X111168571Y-74870952D01*
X111120952Y-74966190D01*
X111120952Y-74204285D02*
X111073333Y-74299523D01*
X111025714Y-74347142D01*
X110930476Y-74394761D01*
X110882857Y-74394761D01*
X110787619Y-74347142D01*
X110740000Y-74299523D01*
X110692380Y-74204285D01*
X110692380Y-74013809D01*
X110740000Y-73918571D01*
X110787619Y-73870952D01*
X110882857Y-73823333D01*
X110930476Y-73823333D01*
X111025714Y-73870952D01*
X111073333Y-73918571D01*
X111120952Y-74013809D01*
X111120952Y-74204285D01*
X111168571Y-74299523D01*
X111216190Y-74347142D01*
X111311428Y-74394761D01*
X111501904Y-74394761D01*
X111597142Y-74347142D01*
X111644761Y-74299523D01*
X111692380Y-74204285D01*
X111692380Y-74013809D01*
X111644761Y-73918571D01*
X111597142Y-73870952D01*
X111501904Y-73823333D01*
X111311428Y-73823333D01*
X111216190Y-73870952D01*
X111168571Y-73918571D01*
X111120952Y-74013809D01*
X111025714Y-72966190D02*
X111692380Y-72966190D01*
X110644761Y-73204285D02*
X111359047Y-73442380D01*
X111359047Y-72823333D01*
X115176666Y-76083333D02*
X115130000Y-76176666D01*
X115036666Y-76270000D01*
X114896666Y-76410000D01*
X114850000Y-76503333D01*
X114850000Y-76596666D01*
X115083333Y-76550000D02*
X115036666Y-76643333D01*
X114943333Y-76736666D01*
X114756666Y-76783333D01*
X114430000Y-76783333D01*
X114243333Y-76736666D01*
X114150000Y-76643333D01*
X114103333Y-76550000D01*
X114103333Y-76363333D01*
X114150000Y-76270000D01*
X114243333Y-76176666D01*
X114430000Y-76130000D01*
X114756666Y-76130000D01*
X114943333Y-76176666D01*
X115036666Y-76270000D01*
X115083333Y-76363333D01*
X115083333Y-76550000D01*
X114196666Y-75756666D02*
X114150000Y-75710000D01*
X114103333Y-75616666D01*
X114103333Y-75383333D01*
X114150000Y-75290000D01*
X114196666Y-75243333D01*
X114290000Y-75196666D01*
X114383333Y-75196666D01*
X114523333Y-75243333D01*
X115083333Y-75803333D01*
X115083333Y-75196666D01*
%TO.C,C1*%
X115842380Y-62262380D02*
X115270952Y-62262380D01*
X115556666Y-62262380D02*
X115556666Y-61262380D01*
X115461428Y-61405238D01*
X115366190Y-61500476D01*
X115270952Y-61548095D01*
X116461428Y-61262380D02*
X116556666Y-61262380D01*
X116651904Y-61310000D01*
X116699523Y-61357619D01*
X116747142Y-61452857D01*
X116794761Y-61643333D01*
X116794761Y-61881428D01*
X116747142Y-62071904D01*
X116699523Y-62167142D01*
X116651904Y-62214761D01*
X116556666Y-62262380D01*
X116461428Y-62262380D01*
X116366190Y-62214761D01*
X116318571Y-62167142D01*
X116270952Y-62071904D01*
X116223333Y-61881428D01*
X116223333Y-61643333D01*
X116270952Y-61452857D01*
X116318571Y-61357619D01*
X116366190Y-61310000D01*
X116461428Y-61262380D01*
X117413809Y-61262380D02*
X117509047Y-61262380D01*
X117604285Y-61310000D01*
X117651904Y-61357619D01*
X117699523Y-61452857D01*
X117747142Y-61643333D01*
X117747142Y-61881428D01*
X117699523Y-62071904D01*
X117651904Y-62167142D01*
X117604285Y-62214761D01*
X117509047Y-62262380D01*
X117413809Y-62262380D01*
X117318571Y-62214761D01*
X117270952Y-62167142D01*
X117223333Y-62071904D01*
X117175714Y-61881428D01*
X117175714Y-61643333D01*
X117223333Y-61452857D01*
X117270952Y-61357619D01*
X117318571Y-61310000D01*
X117413809Y-61262380D01*
X118175714Y-61595714D02*
X118175714Y-62262380D01*
X118175714Y-61690952D02*
X118223333Y-61643333D01*
X118318571Y-61595714D01*
X118461428Y-61595714D01*
X118556666Y-61643333D01*
X118604285Y-61738571D01*
X118604285Y-62262380D01*
X119413809Y-61738571D02*
X119080476Y-61738571D01*
X119080476Y-62262380D02*
X119080476Y-61262380D01*
X119556666Y-61262380D01*
D14*
X117323333Y-63382857D02*
X117304285Y-63401904D01*
X117247142Y-63420952D01*
X117209047Y-63420952D01*
X117151904Y-63401904D01*
X117113809Y-63363809D01*
X117094761Y-63325714D01*
X117075714Y-63249523D01*
X117075714Y-63192380D01*
X117094761Y-63116190D01*
X117113809Y-63078095D01*
X117151904Y-63040000D01*
X117209047Y-63020952D01*
X117247142Y-63020952D01*
X117304285Y-63040000D01*
X117323333Y-63059047D01*
X117704285Y-63420952D02*
X117475714Y-63420952D01*
X117590000Y-63420952D02*
X117590000Y-63020952D01*
X117551904Y-63078095D01*
X117513809Y-63116190D01*
X117475714Y-63135238D01*
%TO.C,C2*%
D13*
X105413809Y-61392380D02*
X104842380Y-61392380D01*
X105128095Y-61392380D02*
X105128095Y-60392380D01*
X105032857Y-60535238D01*
X104937619Y-60630476D01*
X104842380Y-60678095D01*
X106032857Y-60392380D02*
X106128095Y-60392380D01*
X106223333Y-60440000D01*
X106270952Y-60487619D01*
X106318571Y-60582857D01*
X106366190Y-60773333D01*
X106366190Y-61011428D01*
X106318571Y-61201904D01*
X106270952Y-61297142D01*
X106223333Y-61344761D01*
X106128095Y-61392380D01*
X106032857Y-61392380D01*
X105937619Y-61344761D01*
X105890000Y-61297142D01*
X105842380Y-61201904D01*
X105794761Y-61011428D01*
X105794761Y-60773333D01*
X105842380Y-60582857D01*
X105890000Y-60487619D01*
X105937619Y-60440000D01*
X106032857Y-60392380D01*
X107223333Y-60725714D02*
X107223333Y-61392380D01*
X106794761Y-60725714D02*
X106794761Y-61249523D01*
X106842380Y-61344761D01*
X106937619Y-61392380D01*
X107080476Y-61392380D01*
X107175714Y-61344761D01*
X107223333Y-61297142D01*
X108032857Y-60868571D02*
X107699523Y-60868571D01*
X107699523Y-61392380D02*
X107699523Y-60392380D01*
X108175714Y-60392380D01*
X109270952Y-60344761D02*
X108413809Y-61630476D01*
X110080476Y-60392380D02*
X109604285Y-60392380D01*
X109556666Y-60868571D01*
X109604285Y-60820952D01*
X109699523Y-60773333D01*
X109937619Y-60773333D01*
X110032857Y-60820952D01*
X110080476Y-60868571D01*
X110128095Y-60963809D01*
X110128095Y-61201904D01*
X110080476Y-61297142D01*
X110032857Y-61344761D01*
X109937619Y-61392380D01*
X109699523Y-61392380D01*
X109604285Y-61344761D01*
X109556666Y-61297142D01*
X110747142Y-60392380D02*
X110842380Y-60392380D01*
X110937619Y-60440000D01*
X110985238Y-60487619D01*
X111032857Y-60582857D01*
X111080476Y-60773333D01*
X111080476Y-61011428D01*
X111032857Y-61201904D01*
X110985238Y-61297142D01*
X110937619Y-61344761D01*
X110842380Y-61392380D01*
X110747142Y-61392380D01*
X110651904Y-61344761D01*
X110604285Y-61297142D01*
X110556666Y-61201904D01*
X110509047Y-61011428D01*
X110509047Y-60773333D01*
X110556666Y-60582857D01*
X110604285Y-60487619D01*
X110651904Y-60440000D01*
X110747142Y-60392380D01*
X111366190Y-60392380D02*
X111699523Y-61392380D01*
X112032857Y-60392380D01*
D11*
X108256666Y-63525714D02*
X108218571Y-63563809D01*
X108104285Y-63601904D01*
X108028095Y-63601904D01*
X107913809Y-63563809D01*
X107837619Y-63487619D01*
X107799523Y-63411428D01*
X107761428Y-63259047D01*
X107761428Y-63144761D01*
X107799523Y-62992380D01*
X107837619Y-62916190D01*
X107913809Y-62840000D01*
X108028095Y-62801904D01*
X108104285Y-62801904D01*
X108218571Y-62840000D01*
X108256666Y-62878095D01*
X108561428Y-62878095D02*
X108599523Y-62840000D01*
X108675714Y-62801904D01*
X108866190Y-62801904D01*
X108942380Y-62840000D01*
X108980476Y-62878095D01*
X109018571Y-62954285D01*
X109018571Y-63030476D01*
X108980476Y-63144761D01*
X108523333Y-63601904D01*
X109018571Y-63601904D01*
%TO.C,D1*%
D13*
X110985238Y-61068571D02*
X111128095Y-61116190D01*
X111175714Y-61163809D01*
X111223333Y-61259047D01*
X111223333Y-61401904D01*
X111175714Y-61497142D01*
X111128095Y-61544761D01*
X111032857Y-61592380D01*
X110651904Y-61592380D01*
X110651904Y-60592380D01*
X110985238Y-60592380D01*
X111080476Y-60640000D01*
X111128095Y-60687619D01*
X111175714Y-60782857D01*
X111175714Y-60878095D01*
X111128095Y-60973333D01*
X111080476Y-61020952D01*
X110985238Y-61068571D01*
X110651904Y-61068571D01*
X112128095Y-60592380D02*
X111651904Y-60592380D01*
X111604285Y-61068571D01*
X111651904Y-61020952D01*
X111747142Y-60973333D01*
X111985238Y-60973333D01*
X112080476Y-61020952D01*
X112128095Y-61068571D01*
X112175714Y-61163809D01*
X112175714Y-61401904D01*
X112128095Y-61497142D01*
X112080476Y-61544761D01*
X111985238Y-61592380D01*
X111747142Y-61592380D01*
X111651904Y-61544761D01*
X111604285Y-61497142D01*
X112747142Y-61020952D02*
X112651904Y-60973333D01*
X112604285Y-60925714D01*
X112556666Y-60830476D01*
X112556666Y-60782857D01*
X112604285Y-60687619D01*
X112651904Y-60640000D01*
X112747142Y-60592380D01*
X112937619Y-60592380D01*
X113032857Y-60640000D01*
X113080476Y-60687619D01*
X113128095Y-60782857D01*
X113128095Y-60830476D01*
X113080476Y-60925714D01*
X113032857Y-60973333D01*
X112937619Y-61020952D01*
X112747142Y-61020952D01*
X112651904Y-61068571D01*
X112604285Y-61116190D01*
X112556666Y-61211428D01*
X112556666Y-61401904D01*
X112604285Y-61497142D01*
X112651904Y-61544761D01*
X112747142Y-61592380D01*
X112937619Y-61592380D01*
X113032857Y-61544761D01*
X113080476Y-61497142D01*
X113128095Y-61401904D01*
X113128095Y-61211428D01*
X113080476Y-61116190D01*
X113032857Y-61068571D01*
X112937619Y-61020952D01*
X114080476Y-61592380D02*
X113509047Y-61592380D01*
X113794761Y-61592380D02*
X113794761Y-60592380D01*
X113699523Y-60735238D01*
X113604285Y-60830476D01*
X113509047Y-60878095D01*
X114556666Y-61592380D02*
X114747142Y-61592380D01*
X114842380Y-61544761D01*
X114890000Y-61497142D01*
X114985238Y-61354285D01*
X115032857Y-61163809D01*
X115032857Y-60782857D01*
X114985238Y-60687619D01*
X114937619Y-60640000D01*
X114842380Y-60592380D01*
X114651904Y-60592380D01*
X114556666Y-60640000D01*
X114509047Y-60687619D01*
X114461428Y-60782857D01*
X114461428Y-61020952D01*
X114509047Y-61116190D01*
X114556666Y-61163809D01*
X114651904Y-61211428D01*
X114842380Y-61211428D01*
X114937619Y-61163809D01*
X114985238Y-61116190D01*
X115032857Y-61020952D01*
X115366190Y-60592380D02*
X115604285Y-61592380D01*
X115794761Y-60878095D01*
X115985238Y-61592380D01*
X116223333Y-60592380D01*
X112651904Y-65692380D02*
X112651904Y-64692380D01*
X112890000Y-64692380D01*
X113032857Y-64740000D01*
X113128095Y-64835238D01*
X113175714Y-64930476D01*
X113223333Y-65120952D01*
X113223333Y-65263809D01*
X113175714Y-65454285D01*
X113128095Y-65549523D01*
X113032857Y-65644761D01*
X112890000Y-65692380D01*
X112651904Y-65692380D01*
X114175714Y-65692380D02*
X113604285Y-65692380D01*
X113890000Y-65692380D02*
X113890000Y-64692380D01*
X113794761Y-64835238D01*
X113699523Y-64930476D01*
X113604285Y-64978095D01*
%TO.C,J2*%
X91511904Y-68937142D02*
X91464285Y-68984761D01*
X91321428Y-69032380D01*
X91226190Y-69032380D01*
X91083333Y-68984761D01*
X90988095Y-68889523D01*
X90940476Y-68794285D01*
X90892857Y-68603809D01*
X90892857Y-68460952D01*
X90940476Y-68270476D01*
X90988095Y-68175238D01*
X91083333Y-68080000D01*
X91226190Y-68032380D01*
X91321428Y-68032380D01*
X91464285Y-68080000D01*
X91511904Y-68127619D01*
X92083333Y-69032380D02*
X91988095Y-68984761D01*
X91940476Y-68937142D01*
X91892857Y-68841904D01*
X91892857Y-68556190D01*
X91940476Y-68460952D01*
X91988095Y-68413333D01*
X92083333Y-68365714D01*
X92226190Y-68365714D01*
X92321428Y-68413333D01*
X92369047Y-68460952D01*
X92416666Y-68556190D01*
X92416666Y-68841904D01*
X92369047Y-68937142D01*
X92321428Y-68984761D01*
X92226190Y-69032380D01*
X92083333Y-69032380D01*
X92845238Y-68365714D02*
X92845238Y-69032380D01*
X92845238Y-68460952D02*
X92892857Y-68413333D01*
X92988095Y-68365714D01*
X93130952Y-68365714D01*
X93226190Y-68413333D01*
X93273809Y-68508571D01*
X93273809Y-69032380D01*
X93750000Y-68365714D02*
X93750000Y-69032380D01*
X93750000Y-68460952D02*
X93797619Y-68413333D01*
X93892857Y-68365714D01*
X94035714Y-68365714D01*
X94130952Y-68413333D01*
X94178571Y-68508571D01*
X94178571Y-69032380D01*
X94416666Y-69127619D02*
X95178571Y-69127619D01*
X95607142Y-68032380D02*
X95702380Y-68032380D01*
X95797619Y-68080000D01*
X95845238Y-68127619D01*
X95892857Y-68222857D01*
X95940476Y-68413333D01*
X95940476Y-68651428D01*
X95892857Y-68841904D01*
X95845238Y-68937142D01*
X95797619Y-68984761D01*
X95702380Y-69032380D01*
X95607142Y-69032380D01*
X95511904Y-68984761D01*
X95464285Y-68937142D01*
X95416666Y-68841904D01*
X95369047Y-68651428D01*
X95369047Y-68413333D01*
X95416666Y-68222857D01*
X95464285Y-68127619D01*
X95511904Y-68080000D01*
X95607142Y-68032380D01*
X96892857Y-69032380D02*
X96321428Y-69032380D01*
X96607142Y-69032380D02*
X96607142Y-68032380D01*
X96511904Y-68175238D01*
X96416666Y-68270476D01*
X96321428Y-68318095D01*
X97226190Y-69032380D02*
X97750000Y-68365714D01*
X97226190Y-68365714D02*
X97750000Y-69032380D01*
X98321428Y-68032380D02*
X98416666Y-68032380D01*
X98511904Y-68080000D01*
X98559523Y-68127619D01*
X98607142Y-68222857D01*
X98654761Y-68413333D01*
X98654761Y-68651428D01*
X98607142Y-68841904D01*
X98559523Y-68937142D01*
X98511904Y-68984761D01*
X98416666Y-69032380D01*
X98321428Y-69032380D01*
X98226190Y-68984761D01*
X98178571Y-68937142D01*
X98130952Y-68841904D01*
X98083333Y-68651428D01*
X98083333Y-68413333D01*
X98130952Y-68222857D01*
X98178571Y-68127619D01*
X98226190Y-68080000D01*
X98321428Y-68032380D01*
X99607142Y-69032380D02*
X99035714Y-69032380D01*
X99321428Y-69032380D02*
X99321428Y-68032380D01*
X99226190Y-68175238D01*
X99130952Y-68270476D01*
X99035714Y-68318095D01*
X103806666Y-68032380D02*
X103806666Y-68746666D01*
X103759047Y-68889523D01*
X103663809Y-68984761D01*
X103520952Y-69032380D01*
X103425714Y-69032380D01*
X104235238Y-68127619D02*
X104282857Y-68080000D01*
X104378095Y-68032380D01*
X104616190Y-68032380D01*
X104711428Y-68080000D01*
X104759047Y-68127619D01*
X104806666Y-68222857D01*
X104806666Y-68318095D01*
X104759047Y-68460952D01*
X104187619Y-69032380D01*
X104806666Y-69032380D01*
%TO.C,J7*%
X91511904Y-79097142D02*
X91464285Y-79144761D01*
X91321428Y-79192380D01*
X91226190Y-79192380D01*
X91083333Y-79144761D01*
X90988095Y-79049523D01*
X90940476Y-78954285D01*
X90892857Y-78763809D01*
X90892857Y-78620952D01*
X90940476Y-78430476D01*
X90988095Y-78335238D01*
X91083333Y-78240000D01*
X91226190Y-78192380D01*
X91321428Y-78192380D01*
X91464285Y-78240000D01*
X91511904Y-78287619D01*
X92083333Y-79192380D02*
X91988095Y-79144761D01*
X91940476Y-79097142D01*
X91892857Y-79001904D01*
X91892857Y-78716190D01*
X91940476Y-78620952D01*
X91988095Y-78573333D01*
X92083333Y-78525714D01*
X92226190Y-78525714D01*
X92321428Y-78573333D01*
X92369047Y-78620952D01*
X92416666Y-78716190D01*
X92416666Y-79001904D01*
X92369047Y-79097142D01*
X92321428Y-79144761D01*
X92226190Y-79192380D01*
X92083333Y-79192380D01*
X92845238Y-78525714D02*
X92845238Y-79192380D01*
X92845238Y-78620952D02*
X92892857Y-78573333D01*
X92988095Y-78525714D01*
X93130952Y-78525714D01*
X93226190Y-78573333D01*
X93273809Y-78668571D01*
X93273809Y-79192380D01*
X93750000Y-78525714D02*
X93750000Y-79192380D01*
X93750000Y-78620952D02*
X93797619Y-78573333D01*
X93892857Y-78525714D01*
X94035714Y-78525714D01*
X94130952Y-78573333D01*
X94178571Y-78668571D01*
X94178571Y-79192380D01*
X94416666Y-79287619D02*
X95178571Y-79287619D01*
X95607142Y-78192380D02*
X95702380Y-78192380D01*
X95797619Y-78240000D01*
X95845238Y-78287619D01*
X95892857Y-78382857D01*
X95940476Y-78573333D01*
X95940476Y-78811428D01*
X95892857Y-79001904D01*
X95845238Y-79097142D01*
X95797619Y-79144761D01*
X95702380Y-79192380D01*
X95607142Y-79192380D01*
X95511904Y-79144761D01*
X95464285Y-79097142D01*
X95416666Y-79001904D01*
X95369047Y-78811428D01*
X95369047Y-78573333D01*
X95416666Y-78382857D01*
X95464285Y-78287619D01*
X95511904Y-78240000D01*
X95607142Y-78192380D01*
X96892857Y-79192380D02*
X96321428Y-79192380D01*
X96607142Y-79192380D02*
X96607142Y-78192380D01*
X96511904Y-78335238D01*
X96416666Y-78430476D01*
X96321428Y-78478095D01*
X97226190Y-79192380D02*
X97750000Y-78525714D01*
X97226190Y-78525714D02*
X97750000Y-79192380D01*
X98321428Y-78192380D02*
X98416666Y-78192380D01*
X98511904Y-78240000D01*
X98559523Y-78287619D01*
X98607142Y-78382857D01*
X98654761Y-78573333D01*
X98654761Y-78811428D01*
X98607142Y-79001904D01*
X98559523Y-79097142D01*
X98511904Y-79144761D01*
X98416666Y-79192380D01*
X98321428Y-79192380D01*
X98226190Y-79144761D01*
X98178571Y-79097142D01*
X98130952Y-79001904D01*
X98083333Y-78811428D01*
X98083333Y-78573333D01*
X98130952Y-78382857D01*
X98178571Y-78287619D01*
X98226190Y-78240000D01*
X98321428Y-78192380D01*
X99607142Y-79192380D02*
X99035714Y-79192380D01*
X99321428Y-79192380D02*
X99321428Y-78192380D01*
X99226190Y-78335238D01*
X99130952Y-78430476D01*
X99035714Y-78478095D01*
X103806666Y-78192380D02*
X103806666Y-78906666D01*
X103759047Y-79049523D01*
X103663809Y-79144761D01*
X103520952Y-79192380D01*
X103425714Y-79192380D01*
X104187619Y-78192380D02*
X104854285Y-78192380D01*
X104425714Y-79192380D01*
%TO.C,Q1*%
X112218571Y-78728095D02*
X112218571Y-79061428D01*
X112742380Y-79061428D02*
X111742380Y-79061428D01*
X111742380Y-78585238D01*
X112742380Y-78204285D02*
X111742380Y-78204285D01*
X111742380Y-77966190D01*
X111790000Y-77823333D01*
X111885238Y-77728095D01*
X111980476Y-77680476D01*
X112170952Y-77632857D01*
X112313809Y-77632857D01*
X112504285Y-77680476D01*
X112599523Y-77728095D01*
X112694761Y-77823333D01*
X112742380Y-77966190D01*
X112742380Y-78204285D01*
X112694761Y-77251904D02*
X112742380Y-77109047D01*
X112742380Y-76870952D01*
X112694761Y-76775714D01*
X112647142Y-76728095D01*
X112551904Y-76680476D01*
X112456666Y-76680476D01*
X112361428Y-76728095D01*
X112313809Y-76775714D01*
X112266190Y-76870952D01*
X112218571Y-77061428D01*
X112170952Y-77156666D01*
X112123333Y-77204285D01*
X112028095Y-77251904D01*
X111932857Y-77251904D01*
X111837619Y-77204285D01*
X111790000Y-77156666D01*
X111742380Y-77061428D01*
X111742380Y-76823333D01*
X111790000Y-76680476D01*
X112170952Y-76109047D02*
X112123333Y-76204285D01*
X112075714Y-76251904D01*
X111980476Y-76299523D01*
X111932857Y-76299523D01*
X111837619Y-76251904D01*
X111790000Y-76204285D01*
X111742380Y-76109047D01*
X111742380Y-75918571D01*
X111790000Y-75823333D01*
X111837619Y-75775714D01*
X111932857Y-75728095D01*
X111980476Y-75728095D01*
X112075714Y-75775714D01*
X112123333Y-75823333D01*
X112170952Y-75918571D01*
X112170952Y-76109047D01*
X112218571Y-76204285D01*
X112266190Y-76251904D01*
X112361428Y-76299523D01*
X112551904Y-76299523D01*
X112647142Y-76251904D01*
X112694761Y-76204285D01*
X112742380Y-76109047D01*
X112742380Y-75918571D01*
X112694761Y-75823333D01*
X112647142Y-75775714D01*
X112551904Y-75728095D01*
X112361428Y-75728095D01*
X112266190Y-75775714D01*
X112218571Y-75823333D01*
X112170952Y-75918571D01*
X112170952Y-75156666D02*
X112123333Y-75251904D01*
X112075714Y-75299523D01*
X111980476Y-75347142D01*
X111932857Y-75347142D01*
X111837619Y-75299523D01*
X111790000Y-75251904D01*
X111742380Y-75156666D01*
X111742380Y-74966190D01*
X111790000Y-74870952D01*
X111837619Y-74823333D01*
X111932857Y-74775714D01*
X111980476Y-74775714D01*
X112075714Y-74823333D01*
X112123333Y-74870952D01*
X112170952Y-74966190D01*
X112170952Y-75156666D01*
X112218571Y-75251904D01*
X112266190Y-75299523D01*
X112361428Y-75347142D01*
X112551904Y-75347142D01*
X112647142Y-75299523D01*
X112694761Y-75251904D01*
X112742380Y-75156666D01*
X112742380Y-74966190D01*
X112694761Y-74870952D01*
X112647142Y-74823333D01*
X112551904Y-74775714D01*
X112361428Y-74775714D01*
X112266190Y-74823333D01*
X112218571Y-74870952D01*
X112170952Y-74966190D01*
X112170952Y-74204285D02*
X112123333Y-74299523D01*
X112075714Y-74347142D01*
X111980476Y-74394761D01*
X111932857Y-74394761D01*
X111837619Y-74347142D01*
X111790000Y-74299523D01*
X111742380Y-74204285D01*
X111742380Y-74013809D01*
X111790000Y-73918571D01*
X111837619Y-73870952D01*
X111932857Y-73823333D01*
X111980476Y-73823333D01*
X112075714Y-73870952D01*
X112123333Y-73918571D01*
X112170952Y-74013809D01*
X112170952Y-74204285D01*
X112218571Y-74299523D01*
X112266190Y-74347142D01*
X112361428Y-74394761D01*
X112551904Y-74394761D01*
X112647142Y-74347142D01*
X112694761Y-74299523D01*
X112742380Y-74204285D01*
X112742380Y-74013809D01*
X112694761Y-73918571D01*
X112647142Y-73870952D01*
X112551904Y-73823333D01*
X112361428Y-73823333D01*
X112266190Y-73870952D01*
X112218571Y-73918571D01*
X112170952Y-74013809D01*
X112075714Y-72966190D02*
X112742380Y-72966190D01*
X111694761Y-73204285D02*
X112409047Y-73442380D01*
X112409047Y-72823333D01*
X109426666Y-76083333D02*
X109380000Y-76176666D01*
X109286666Y-76270000D01*
X109146666Y-76410000D01*
X109100000Y-76503333D01*
X109100000Y-76596666D01*
X109333333Y-76550000D02*
X109286666Y-76643333D01*
X109193333Y-76736666D01*
X109006666Y-76783333D01*
X108680000Y-76783333D01*
X108493333Y-76736666D01*
X108400000Y-76643333D01*
X108353333Y-76550000D01*
X108353333Y-76363333D01*
X108400000Y-76270000D01*
X108493333Y-76176666D01*
X108680000Y-76130000D01*
X109006666Y-76130000D01*
X109193333Y-76176666D01*
X109286666Y-76270000D01*
X109333333Y-76363333D01*
X109333333Y-76550000D01*
X109333333Y-75196666D02*
X109333333Y-75756666D01*
X109333333Y-75476666D02*
X108353333Y-75476666D01*
X108493333Y-75570000D01*
X108586666Y-75663333D01*
X108633333Y-75756666D01*
%TO.C,R1*%
X115579285Y-67155714D02*
X115579285Y-67822380D01*
X115341190Y-66774761D02*
X115103095Y-67489047D01*
X115722142Y-67489047D01*
X116007857Y-66822380D02*
X116674523Y-66822380D01*
X116245952Y-67822380D01*
D14*
X115798333Y-66120952D02*
X115665000Y-65930476D01*
X115569761Y-66120952D02*
X115569761Y-65720952D01*
X115722142Y-65720952D01*
X115760238Y-65740000D01*
X115779285Y-65759047D01*
X115798333Y-65797142D01*
X115798333Y-65854285D01*
X115779285Y-65892380D01*
X115760238Y-65911428D01*
X115722142Y-65930476D01*
X115569761Y-65930476D01*
X116179285Y-66120952D02*
X115950714Y-66120952D01*
X116065000Y-66120952D02*
X116065000Y-65720952D01*
X116026904Y-65778095D01*
X115988809Y-65816190D01*
X115950714Y-65835238D01*
%TO.C,R2*%
D13*
X120272380Y-67061428D02*
X120272380Y-67632857D01*
X120272380Y-67347142D02*
X119272380Y-67347142D01*
X119415238Y-67442380D01*
X119510476Y-67537619D01*
X119558095Y-67632857D01*
X119272380Y-66442380D02*
X119272380Y-66347142D01*
X119320000Y-66251904D01*
X119367619Y-66204285D01*
X119462857Y-66156666D01*
X119653333Y-66109047D01*
X119891428Y-66109047D01*
X120081904Y-66156666D01*
X120177142Y-66204285D01*
X120224761Y-66251904D01*
X120272380Y-66347142D01*
X120272380Y-66442380D01*
X120224761Y-66537619D01*
X120177142Y-66585238D01*
X120081904Y-66632857D01*
X119891428Y-66680476D01*
X119653333Y-66680476D01*
X119462857Y-66632857D01*
X119367619Y-66585238D01*
X119320000Y-66537619D01*
X119272380Y-66442380D01*
X119272380Y-65490000D02*
X119272380Y-65394761D01*
X119320000Y-65299523D01*
X119367619Y-65251904D01*
X119462857Y-65204285D01*
X119653333Y-65156666D01*
X119891428Y-65156666D01*
X120081904Y-65204285D01*
X120177142Y-65251904D01*
X120224761Y-65299523D01*
X120272380Y-65394761D01*
X120272380Y-65490000D01*
X120224761Y-65585238D01*
X120177142Y-65632857D01*
X120081904Y-65680476D01*
X119891428Y-65728095D01*
X119653333Y-65728095D01*
X119462857Y-65680476D01*
X119367619Y-65632857D01*
X119320000Y-65585238D01*
X119272380Y-65490000D01*
X120272380Y-64728095D02*
X119272380Y-64728095D01*
X119891428Y-64632857D02*
X120272380Y-64347142D01*
X119605714Y-64347142D02*
X119986666Y-64728095D01*
D14*
X118570952Y-66056666D02*
X118380476Y-66190000D01*
X118570952Y-66285238D02*
X118170952Y-66285238D01*
X118170952Y-66132857D01*
X118190000Y-66094761D01*
X118209047Y-66075714D01*
X118247142Y-66056666D01*
X118304285Y-66056666D01*
X118342380Y-66075714D01*
X118361428Y-66094761D01*
X118380476Y-66132857D01*
X118380476Y-66285238D01*
X118209047Y-65904285D02*
X118190000Y-65885238D01*
X118170952Y-65847142D01*
X118170952Y-65751904D01*
X118190000Y-65713809D01*
X118209047Y-65694761D01*
X118247142Y-65675714D01*
X118285238Y-65675714D01*
X118342380Y-65694761D01*
X118570952Y-65923333D01*
X118570952Y-65675714D01*
%TO.C,U1*%
D13*
X106913809Y-71592380D02*
X106913809Y-70592380D01*
X107390000Y-71592380D02*
X107390000Y-70592380D01*
X107723333Y-71306666D01*
X108056666Y-70592380D01*
X108056666Y-71592380D01*
X108532857Y-71592380D02*
X108532857Y-70592380D01*
X108913809Y-70592380D01*
X109009047Y-70640000D01*
X109056666Y-70687619D01*
X109104285Y-70782857D01*
X109104285Y-70925714D01*
X109056666Y-71020952D01*
X109009047Y-71068571D01*
X108913809Y-71116190D01*
X108532857Y-71116190D01*
X109437619Y-70592380D02*
X110056666Y-70592380D01*
X109723333Y-70973333D01*
X109866190Y-70973333D01*
X109961428Y-71020952D01*
X110009047Y-71068571D01*
X110056666Y-71163809D01*
X110056666Y-71401904D01*
X110009047Y-71497142D01*
X109961428Y-71544761D01*
X109866190Y-71592380D01*
X109580476Y-71592380D01*
X109485238Y-71544761D01*
X109437619Y-71497142D01*
X110437619Y-70687619D02*
X110485238Y-70640000D01*
X110580476Y-70592380D01*
X110818571Y-70592380D01*
X110913809Y-70640000D01*
X110961428Y-70687619D01*
X111009047Y-70782857D01*
X111009047Y-70878095D01*
X110961428Y-71020952D01*
X110390000Y-71592380D01*
X111009047Y-71592380D01*
X111628095Y-70592380D02*
X111723333Y-70592380D01*
X111818571Y-70640000D01*
X111866190Y-70687619D01*
X111913809Y-70782857D01*
X111961428Y-70973333D01*
X111961428Y-71211428D01*
X111913809Y-71401904D01*
X111866190Y-71497142D01*
X111818571Y-71544761D01*
X111723333Y-71592380D01*
X111628095Y-71592380D01*
X111532857Y-71544761D01*
X111485238Y-71497142D01*
X111437619Y-71401904D01*
X111390000Y-71211428D01*
X111390000Y-70973333D01*
X111437619Y-70782857D01*
X111485238Y-70687619D01*
X111532857Y-70640000D01*
X111628095Y-70592380D01*
X112913809Y-71592380D02*
X112342380Y-71592380D01*
X112628095Y-71592380D02*
X112628095Y-70592380D01*
X112532857Y-70735238D01*
X112437619Y-70830476D01*
X112342380Y-70878095D01*
X109143333Y-67203333D02*
X109143333Y-67996666D01*
X109190000Y-68090000D01*
X109236666Y-68136666D01*
X109330000Y-68183333D01*
X109516666Y-68183333D01*
X109610000Y-68136666D01*
X109656666Y-68090000D01*
X109703333Y-67996666D01*
X109703333Y-67203333D01*
X110683333Y-68183333D02*
X110123333Y-68183333D01*
X110403333Y-68183333D02*
X110403333Y-67203333D01*
X110310000Y-67343333D01*
X110216666Y-67436666D01*
X110123333Y-67483333D01*
%TD*%
M02*
