M48
; DRILL file {KiCad (5.1.9)-1} date 06/01/21 10:14:58
; FORMAT={-:-/ absolute / inch / decimal}
; #@! TF.CreationDate,2021-06-01T10:14:58+02:00
; #@! TF.GenerationSoftware,Kicad,Pcbnew,(5.1.9)-1
; #@! TF.FileFunction,Plated,1,2,PTH
FMAT,2
INCH
T1C0.0236
T2C0.0300
T3C0.0394
%
G90
G05
T1
X4.163Y-2.4465
X4.3638Y-3.1551
X4.4898Y-2.8165
X4.5409Y-2.8165
X4.5921Y-2.6512
X4.5921Y-2.8165
X4.6118Y-2.5449
X4.6433Y-2.8717
X4.6433Y-2.9268
X4.6433Y-2.9819
X4.663Y-2.6906
X4.6827Y-3.0449
T2
X4.0Y-2.5
X4.0Y-2.6
X4.0Y-2.7
X4.0Y-2.8
X4.0Y-2.9
X4.0Y-3.0
X4.0Y-3.1
T3
X4.1Y-2.5
X4.1Y-2.6
X4.1Y-2.7
X4.1Y-2.8
X4.1Y-2.9
X4.1Y-3.0
X4.1Y-3.1
T0
M30
