%TF.GenerationSoftware,KiCad,Pcbnew,(5.1.9)-1*%
%TF.CreationDate,2021-06-01T10:14:56+02:00*%
%TF.ProjectId,14_Demi_Pont_H_99,31345f44-656d-4695-9f50-6f6e745f485f,rev?*%
%TF.SameCoordinates,Original*%
%TF.FileFunction,Paste,Top*%
%TF.FilePolarity,Positive*%
%FSLAX46Y46*%
G04 Gerber Fmt 4.6, Leading zero omitted, Abs format (unit mm)*
G04 Created by KiCad (PCBNEW (5.1.9)-1) date 2021-06-01 10:14:56*
%MOMM*%
%LPD*%
G01*
G04 APERTURE LIST*
%TA.AperFunction,Profile*%
%ADD10C,0.050000*%
%TD*%
%ADD11R,0.900000X1.200000*%
G04 APERTURE END LIST*
D10*
X115570000Y-60960000D02*
X120650000Y-60960000D01*
X115570000Y-81280000D02*
X120650000Y-81280000D01*
X101600000Y-62230000D02*
X101600000Y-60960000D01*
X100330000Y-62230000D02*
X101600000Y-62230000D01*
X100330000Y-67310000D02*
X100330000Y-62230000D01*
X100330000Y-72390000D02*
X100330000Y-67310000D01*
X120650000Y-60960000D02*
X120650000Y-81280000D01*
X101600000Y-60960000D02*
X115570000Y-60960000D01*
X101600000Y-80010000D02*
X101600000Y-81280000D01*
X100330000Y-80010000D02*
X101600000Y-80010000D01*
X115570000Y-81280000D02*
X101600000Y-81280000D01*
X100330000Y-80010000D02*
X100330000Y-72390000D01*
%TO.C,R4*%
G36*
G01*
X118152500Y-71090000D02*
X118627500Y-71090000D01*
G75*
G02*
X118865000Y-71327500I0J-237500D01*
G01*
X118865000Y-71902500D01*
G75*
G02*
X118627500Y-72140000I-237500J0D01*
G01*
X118152500Y-72140000D01*
G75*
G02*
X117915000Y-71902500I0J237500D01*
G01*
X117915000Y-71327500D01*
G75*
G02*
X118152500Y-71090000I237500J0D01*
G01*
G37*
G36*
G01*
X118152500Y-69340000D02*
X118627500Y-69340000D01*
G75*
G02*
X118865000Y-69577500I0J-237500D01*
G01*
X118865000Y-70152500D01*
G75*
G02*
X118627500Y-70390000I-237500J0D01*
G01*
X118152500Y-70390000D01*
G75*
G02*
X117915000Y-70152500I0J237500D01*
G01*
X117915000Y-69577500D01*
G75*
G02*
X118152500Y-69340000I237500J0D01*
G01*
G37*
%TD*%
%TO.C,R3*%
G36*
G01*
X116090000Y-68877500D02*
X116090000Y-68402500D01*
G75*
G02*
X116327500Y-68165000I237500J0D01*
G01*
X116902500Y-68165000D01*
G75*
G02*
X117140000Y-68402500I0J-237500D01*
G01*
X117140000Y-68877500D01*
G75*
G02*
X116902500Y-69115000I-237500J0D01*
G01*
X116327500Y-69115000D01*
G75*
G02*
X116090000Y-68877500I0J237500D01*
G01*
G37*
G36*
G01*
X114340000Y-68877500D02*
X114340000Y-68402500D01*
G75*
G02*
X114577500Y-68165000I237500J0D01*
G01*
X115152500Y-68165000D01*
G75*
G02*
X115390000Y-68402500I0J-237500D01*
G01*
X115390000Y-68877500D01*
G75*
G02*
X115152500Y-69115000I-237500J0D01*
G01*
X114577500Y-69115000D01*
G75*
G02*
X114340000Y-68877500I0J237500D01*
G01*
G37*
%TD*%
%TO.C,Q2*%
G36*
G01*
X116395000Y-77490000D02*
X116695000Y-77490000D01*
G75*
G02*
X116845000Y-77640000I0J-150000D01*
G01*
X116845000Y-79290000D01*
G75*
G02*
X116695000Y-79440000I-150000J0D01*
G01*
X116395000Y-79440000D01*
G75*
G02*
X116245000Y-79290000I0J150000D01*
G01*
X116245000Y-77640000D01*
G75*
G02*
X116395000Y-77490000I150000J0D01*
G01*
G37*
G36*
G01*
X115125000Y-77490000D02*
X115425000Y-77490000D01*
G75*
G02*
X115575000Y-77640000I0J-150000D01*
G01*
X115575000Y-79290000D01*
G75*
G02*
X115425000Y-79440000I-150000J0D01*
G01*
X115125000Y-79440000D01*
G75*
G02*
X114975000Y-79290000I0J150000D01*
G01*
X114975000Y-77640000D01*
G75*
G02*
X115125000Y-77490000I150000J0D01*
G01*
G37*
G36*
G01*
X113855000Y-77490000D02*
X114155000Y-77490000D01*
G75*
G02*
X114305000Y-77640000I0J-150000D01*
G01*
X114305000Y-79290000D01*
G75*
G02*
X114155000Y-79440000I-150000J0D01*
G01*
X113855000Y-79440000D01*
G75*
G02*
X113705000Y-79290000I0J150000D01*
G01*
X113705000Y-77640000D01*
G75*
G02*
X113855000Y-77490000I150000J0D01*
G01*
G37*
G36*
G01*
X112585000Y-77490000D02*
X112885000Y-77490000D01*
G75*
G02*
X113035000Y-77640000I0J-150000D01*
G01*
X113035000Y-79290000D01*
G75*
G02*
X112885000Y-79440000I-150000J0D01*
G01*
X112585000Y-79440000D01*
G75*
G02*
X112435000Y-79290000I0J150000D01*
G01*
X112435000Y-77640000D01*
G75*
G02*
X112585000Y-77490000I150000J0D01*
G01*
G37*
G36*
G01*
X112585000Y-72540000D02*
X112885000Y-72540000D01*
G75*
G02*
X113035000Y-72690000I0J-150000D01*
G01*
X113035000Y-74340000D01*
G75*
G02*
X112885000Y-74490000I-150000J0D01*
G01*
X112585000Y-74490000D01*
G75*
G02*
X112435000Y-74340000I0J150000D01*
G01*
X112435000Y-72690000D01*
G75*
G02*
X112585000Y-72540000I150000J0D01*
G01*
G37*
G36*
G01*
X113855000Y-72540000D02*
X114155000Y-72540000D01*
G75*
G02*
X114305000Y-72690000I0J-150000D01*
G01*
X114305000Y-74340000D01*
G75*
G02*
X114155000Y-74490000I-150000J0D01*
G01*
X113855000Y-74490000D01*
G75*
G02*
X113705000Y-74340000I0J150000D01*
G01*
X113705000Y-72690000D01*
G75*
G02*
X113855000Y-72540000I150000J0D01*
G01*
G37*
G36*
G01*
X115125000Y-72540000D02*
X115425000Y-72540000D01*
G75*
G02*
X115575000Y-72690000I0J-150000D01*
G01*
X115575000Y-74340000D01*
G75*
G02*
X115425000Y-74490000I-150000J0D01*
G01*
X115125000Y-74490000D01*
G75*
G02*
X114975000Y-74340000I0J150000D01*
G01*
X114975000Y-72690000D01*
G75*
G02*
X115125000Y-72540000I150000J0D01*
G01*
G37*
G36*
G01*
X116395000Y-72540000D02*
X116695000Y-72540000D01*
G75*
G02*
X116845000Y-72690000I0J-150000D01*
G01*
X116845000Y-74340000D01*
G75*
G02*
X116695000Y-74490000I-150000J0D01*
G01*
X116395000Y-74490000D01*
G75*
G02*
X116245000Y-74340000I0J150000D01*
G01*
X116245000Y-72690000D01*
G75*
G02*
X116395000Y-72540000I150000J0D01*
G01*
G37*
%TD*%
%TO.C,C1*%
G36*
G01*
X117065000Y-62990000D02*
X117065000Y-63490000D01*
G75*
G02*
X116840000Y-63715000I-225000J0D01*
G01*
X116390000Y-63715000D01*
G75*
G02*
X116165000Y-63490000I0J225000D01*
G01*
X116165000Y-62990000D01*
G75*
G02*
X116390000Y-62765000I225000J0D01*
G01*
X116840000Y-62765000D01*
G75*
G02*
X117065000Y-62990000I0J-225000D01*
G01*
G37*
G36*
G01*
X118615000Y-62990000D02*
X118615000Y-63490000D01*
G75*
G02*
X118390000Y-63715000I-225000J0D01*
G01*
X117940000Y-63715000D01*
G75*
G02*
X117715000Y-63490000I0J225000D01*
G01*
X117715000Y-62990000D01*
G75*
G02*
X117940000Y-62765000I225000J0D01*
G01*
X118390000Y-62765000D01*
G75*
G02*
X118615000Y-62990000I0J-225000D01*
G01*
G37*
%TD*%
%TO.C,C2*%
G36*
G01*
X107490000Y-62139999D02*
X107490000Y-64340001D01*
G75*
G02*
X107240001Y-64590000I-249999J0D01*
G01*
X106589999Y-64590000D01*
G75*
G02*
X106340000Y-64340001I0J249999D01*
G01*
X106340000Y-62139999D01*
G75*
G02*
X106589999Y-61890000I249999J0D01*
G01*
X107240001Y-61890000D01*
G75*
G02*
X107490000Y-62139999I0J-249999D01*
G01*
G37*
G36*
G01*
X110440000Y-62139999D02*
X110440000Y-64340001D01*
G75*
G02*
X110190001Y-64590000I-249999J0D01*
G01*
X109539999Y-64590000D01*
G75*
G02*
X109290000Y-64340001I0J249999D01*
G01*
X109290000Y-62139999D01*
G75*
G02*
X109539999Y-61890000I249999J0D01*
G01*
X110190001Y-61890000D01*
G75*
G02*
X110440000Y-62139999I0J-249999D01*
G01*
G37*
%TD*%
D11*
%TO.C,D1*%
X111740000Y-63240000D03*
X115040000Y-63240000D03*
%TD*%
%TO.C,Q1*%
G36*
G01*
X107135000Y-74490000D02*
X106835000Y-74490000D01*
G75*
G02*
X106685000Y-74340000I0J150000D01*
G01*
X106685000Y-72690000D01*
G75*
G02*
X106835000Y-72540000I150000J0D01*
G01*
X107135000Y-72540000D01*
G75*
G02*
X107285000Y-72690000I0J-150000D01*
G01*
X107285000Y-74340000D01*
G75*
G02*
X107135000Y-74490000I-150000J0D01*
G01*
G37*
G36*
G01*
X108405000Y-74490000D02*
X108105000Y-74490000D01*
G75*
G02*
X107955000Y-74340000I0J150000D01*
G01*
X107955000Y-72690000D01*
G75*
G02*
X108105000Y-72540000I150000J0D01*
G01*
X108405000Y-72540000D01*
G75*
G02*
X108555000Y-72690000I0J-150000D01*
G01*
X108555000Y-74340000D01*
G75*
G02*
X108405000Y-74490000I-150000J0D01*
G01*
G37*
G36*
G01*
X109675000Y-74490000D02*
X109375000Y-74490000D01*
G75*
G02*
X109225000Y-74340000I0J150000D01*
G01*
X109225000Y-72690000D01*
G75*
G02*
X109375000Y-72540000I150000J0D01*
G01*
X109675000Y-72540000D01*
G75*
G02*
X109825000Y-72690000I0J-150000D01*
G01*
X109825000Y-74340000D01*
G75*
G02*
X109675000Y-74490000I-150000J0D01*
G01*
G37*
G36*
G01*
X110945000Y-74490000D02*
X110645000Y-74490000D01*
G75*
G02*
X110495000Y-74340000I0J150000D01*
G01*
X110495000Y-72690000D01*
G75*
G02*
X110645000Y-72540000I150000J0D01*
G01*
X110945000Y-72540000D01*
G75*
G02*
X111095000Y-72690000I0J-150000D01*
G01*
X111095000Y-74340000D01*
G75*
G02*
X110945000Y-74490000I-150000J0D01*
G01*
G37*
G36*
G01*
X110945000Y-79440000D02*
X110645000Y-79440000D01*
G75*
G02*
X110495000Y-79290000I0J150000D01*
G01*
X110495000Y-77640000D01*
G75*
G02*
X110645000Y-77490000I150000J0D01*
G01*
X110945000Y-77490000D01*
G75*
G02*
X111095000Y-77640000I0J-150000D01*
G01*
X111095000Y-79290000D01*
G75*
G02*
X110945000Y-79440000I-150000J0D01*
G01*
G37*
G36*
G01*
X109675000Y-79440000D02*
X109375000Y-79440000D01*
G75*
G02*
X109225000Y-79290000I0J150000D01*
G01*
X109225000Y-77640000D01*
G75*
G02*
X109375000Y-77490000I150000J0D01*
G01*
X109675000Y-77490000D01*
G75*
G02*
X109825000Y-77640000I0J-150000D01*
G01*
X109825000Y-79290000D01*
G75*
G02*
X109675000Y-79440000I-150000J0D01*
G01*
G37*
G36*
G01*
X108405000Y-79440000D02*
X108105000Y-79440000D01*
G75*
G02*
X107955000Y-79290000I0J150000D01*
G01*
X107955000Y-77640000D01*
G75*
G02*
X108105000Y-77490000I150000J0D01*
G01*
X108405000Y-77490000D01*
G75*
G02*
X108555000Y-77640000I0J-150000D01*
G01*
X108555000Y-79290000D01*
G75*
G02*
X108405000Y-79440000I-150000J0D01*
G01*
G37*
G36*
G01*
X107135000Y-79440000D02*
X106835000Y-79440000D01*
G75*
G02*
X106685000Y-79290000I0J150000D01*
G01*
X106685000Y-77640000D01*
G75*
G02*
X106835000Y-77490000I150000J0D01*
G01*
X107135000Y-77490000D01*
G75*
G02*
X107285000Y-77640000I0J-150000D01*
G01*
X107285000Y-79290000D01*
G75*
G02*
X107135000Y-79440000I-150000J0D01*
G01*
G37*
%TD*%
%TO.C,R1*%
G36*
G01*
X116215000Y-66177500D02*
X116215000Y-65702500D01*
G75*
G02*
X116452500Y-65465000I237500J0D01*
G01*
X117027500Y-65465000D01*
G75*
G02*
X117265000Y-65702500I0J-237500D01*
G01*
X117265000Y-66177500D01*
G75*
G02*
X117027500Y-66415000I-237500J0D01*
G01*
X116452500Y-66415000D01*
G75*
G02*
X116215000Y-66177500I0J237500D01*
G01*
G37*
G36*
G01*
X114465000Y-66177500D02*
X114465000Y-65702500D01*
G75*
G02*
X114702500Y-65465000I237500J0D01*
G01*
X115277500Y-65465000D01*
G75*
G02*
X115515000Y-65702500I0J-237500D01*
G01*
X115515000Y-66177500D01*
G75*
G02*
X115277500Y-66415000I-237500J0D01*
G01*
X114702500Y-66415000D01*
G75*
G02*
X114465000Y-66177500I0J237500D01*
G01*
G37*
%TD*%
%TO.C,R2*%
G36*
G01*
X118627500Y-65640000D02*
X118152500Y-65640000D01*
G75*
G02*
X117915000Y-65402500I0J237500D01*
G01*
X117915000Y-64827500D01*
G75*
G02*
X118152500Y-64590000I237500J0D01*
G01*
X118627500Y-64590000D01*
G75*
G02*
X118865000Y-64827500I0J-237500D01*
G01*
X118865000Y-65402500D01*
G75*
G02*
X118627500Y-65640000I-237500J0D01*
G01*
G37*
G36*
G01*
X118627500Y-67390000D02*
X118152500Y-67390000D01*
G75*
G02*
X117915000Y-67152500I0J237500D01*
G01*
X117915000Y-66577500D01*
G75*
G02*
X118152500Y-66340000I237500J0D01*
G01*
X118627500Y-66340000D01*
G75*
G02*
X118865000Y-66577500I0J-237500D01*
G01*
X118865000Y-67152500D01*
G75*
G02*
X118627500Y-67390000I-237500J0D01*
G01*
G37*
%TD*%
%TO.C,U1*%
G36*
G01*
X111690000Y-65985000D02*
X111690000Y-65685000D01*
G75*
G02*
X111840000Y-65535000I150000J0D01*
G01*
X113190000Y-65535000D01*
G75*
G02*
X113340000Y-65685000I0J-150000D01*
G01*
X113340000Y-65985000D01*
G75*
G02*
X113190000Y-66135000I-150000J0D01*
G01*
X111840000Y-66135000D01*
G75*
G02*
X111690000Y-65985000I0J150000D01*
G01*
G37*
G36*
G01*
X111690000Y-67255000D02*
X111690000Y-66955000D01*
G75*
G02*
X111840000Y-66805000I150000J0D01*
G01*
X113190000Y-66805000D01*
G75*
G02*
X113340000Y-66955000I0J-150000D01*
G01*
X113340000Y-67255000D01*
G75*
G02*
X113190000Y-67405000I-150000J0D01*
G01*
X111840000Y-67405000D01*
G75*
G02*
X111690000Y-67255000I0J150000D01*
G01*
G37*
G36*
G01*
X111690000Y-68525000D02*
X111690000Y-68225000D01*
G75*
G02*
X111840000Y-68075000I150000J0D01*
G01*
X113190000Y-68075000D01*
G75*
G02*
X113340000Y-68225000I0J-150000D01*
G01*
X113340000Y-68525000D01*
G75*
G02*
X113190000Y-68675000I-150000J0D01*
G01*
X111840000Y-68675000D01*
G75*
G02*
X111690000Y-68525000I0J150000D01*
G01*
G37*
G36*
G01*
X111690000Y-69795000D02*
X111690000Y-69495000D01*
G75*
G02*
X111840000Y-69345000I150000J0D01*
G01*
X113190000Y-69345000D01*
G75*
G02*
X113340000Y-69495000I0J-150000D01*
G01*
X113340000Y-69795000D01*
G75*
G02*
X113190000Y-69945000I-150000J0D01*
G01*
X111840000Y-69945000D01*
G75*
G02*
X111690000Y-69795000I0J150000D01*
G01*
G37*
G36*
G01*
X106440000Y-69795000D02*
X106440000Y-69495000D01*
G75*
G02*
X106590000Y-69345000I150000J0D01*
G01*
X107940000Y-69345000D01*
G75*
G02*
X108090000Y-69495000I0J-150000D01*
G01*
X108090000Y-69795000D01*
G75*
G02*
X107940000Y-69945000I-150000J0D01*
G01*
X106590000Y-69945000D01*
G75*
G02*
X106440000Y-69795000I0J150000D01*
G01*
G37*
G36*
G01*
X106440000Y-68525000D02*
X106440000Y-68225000D01*
G75*
G02*
X106590000Y-68075000I150000J0D01*
G01*
X107940000Y-68075000D01*
G75*
G02*
X108090000Y-68225000I0J-150000D01*
G01*
X108090000Y-68525000D01*
G75*
G02*
X107940000Y-68675000I-150000J0D01*
G01*
X106590000Y-68675000D01*
G75*
G02*
X106440000Y-68525000I0J150000D01*
G01*
G37*
G36*
G01*
X106440000Y-67255000D02*
X106440000Y-66955000D01*
G75*
G02*
X106590000Y-66805000I150000J0D01*
G01*
X107940000Y-66805000D01*
G75*
G02*
X108090000Y-66955000I0J-150000D01*
G01*
X108090000Y-67255000D01*
G75*
G02*
X107940000Y-67405000I-150000J0D01*
G01*
X106590000Y-67405000D01*
G75*
G02*
X106440000Y-67255000I0J150000D01*
G01*
G37*
G36*
G01*
X106440000Y-65985000D02*
X106440000Y-65685000D01*
G75*
G02*
X106590000Y-65535000I150000J0D01*
G01*
X107940000Y-65535000D01*
G75*
G02*
X108090000Y-65685000I0J-150000D01*
G01*
X108090000Y-65985000D01*
G75*
G02*
X107940000Y-66135000I-150000J0D01*
G01*
X106590000Y-66135000D01*
G75*
G02*
X106440000Y-65985000I0J150000D01*
G01*
G37*
%TD*%
M02*
